<mxfile host="app.diagrams.net" agent="Mozilla/5.0 (Windows NT 10.0; Win64; x64) AppleWebKit/537.36 (KHTML, like Gecko) Chrome/134.0.0.0 Safari/537.36 Edg/134.0.0.0" version="26.1.1">
  <diagram name="Page-1" id="1Atn9DCCi0aR7GsnSS6r">
    <mxGraphModel dx="872" dy="481" grid="1" gridSize="10" guides="1" tooltips="1" connect="1" arrows="1" fold="1" page="1" pageScale="1" pageWidth="827" pageHeight="1169" math="0" shadow="0">
      <root>
        <mxCell id="0" />
        <mxCell id="1" parent="0" />
        <mxCell id="xVC4U7UjAwEscI-Leogj-1" value="" style="shape=image;verticalLabelPosition=bottom;labelBackgroundColor=default;verticalAlign=top;aspect=fixed;imageAspect=0;image=data:image/jpeg,/9j/4AAQSkZJRgABAQEAYABgAAD/4QBaRXhpZgAATU0AKgAAAAgABQMBAAUAAAABAAAASgMDAAEAAAABAAAAAFEQAAEAAAABAQAAAFERAAQAAAABAAAOw1ESAAQAAAABAAAOwwAAAAAAAYagAACxj//bAEMACgcHCAcGCggICAsKCgsOGBAODQ0OHRUWERgjHyUkIh8iISYrNy8mKTQpISIwQTE0OTs+Pj4lLkRJQzxINz0+O//bAEMBCgsLDg0OHBAQHDsoIig7Ozs7Ozs7Ozs7Ozs7Ozs7Ozs7Ozs7Ozs7Ozs7Ozs7Ozs7Ozs7Ozs7Ozs7Ozs7Ozs7O//AABEIAZADUgMBIgACEQEDEQH/xAAfAAABBQEBAQEBAQAAAAAAAAAAAQIDBAUGBwgJCgv/xAC1EAACAQMDAgQDBQUEBAAAAX0BAgMABBEFEiExQQYTUWEHInEUMoGRoQgjQrHBFVLR8CQzYnKCCQoWFxgZGiUmJygpKjQ1Njc4OTpDREVGR0hJSlNUVVZXWFlaY2RlZmdoaWpzdHV2d3h5eoOEhYaHiImKkpOUlZaXmJmaoqOkpaanqKmqsrO0tba3uLm6wsPExcbHyMnK0tPU1dbX2Nna4eLj5OXm5+jp6vHy8/T19vf4+fr/xAAfAQADAQEBAQEBAQEBAAAAAAAAAQIDBAUGBwgJCgv/xAC1EQACAQIEBAMEBwUEBAABAncAAQIDEQQFITEGEkFRB2FxEyIygQgUQpGhscEJIzNS8BVictEKFiQ04SXxFxgZGiYnKCkqNTY3ODk6Q0RFRkdISUpTVFVWV1hZWmNkZWZnaGlqc3R1dnd4eXqCg4SFhoeIiYqSk5SVlpeYmZqio6Slpqeoqaqys7S1tre4ubrCw8TFxsfIycrS09TV1tfY2dri4+Tl5ufo6ery8/T19vf4+fr/2gAMAwEAAhEDEQA/APZqKKKACiiigAooooAKKKKACiiigAooooAKKKKACiiigAooooAKKKKACiiigAooooAKKKKACiiigAooooAKKKKACiiigAooooAKKKKACiiigAooooAKKKKACiiigAooooAKKKKACiiigAooooAKKKKACiiigAooooAKKKKACiiigAooooAKKKKACiiigAooooAKKKKACiiigAooooAKKKKACiiigAooooAKKKKACiiigAooooAKKKKACiiigAooooAKKKKACiiigAooooAKKKKACiiigAooooAKKKKACiiigAooooAKKKKACiiigAooooAKKKKACiiigAooooAKKKKACiiigAooooAKKKKACiiigAooooAKKKKACiiigAooooAKKKKACiiigAooooAKKKKACiiigAooooAKKKKACiiigAooooAKKKKACiiigAooooAKKKKACiiigAooooAKKKKACiiigAooooAKKKKACiiigAooooAKKKKACiiigAooooAKKKKACiiigAooooAKKKKACiiigAooooAKKKKACiiigAooooAKKKKACiiigAooooAKKKKACiiigAooooAKKKKACiiigAooooAKKKKACiiigAooooAKKKKACiiigAooooAKKKKACiiigAooooAKKKKACiiigAooooAKKKKACiiigAooooAKKKKACiiigAooooAKKKKACiiigAooooAKKKKACiiigAooooAKKKKACiiigAooooAKKKKACiiigAooooAKKKKACiiigAooooAKKKKACiiigAooooAKKKKACiiigAooooAKKKKACiiigAooooAKKKKACiiigAooooAKKKKACiiigAooooAKKKKACiiigAooooAKKKKACiiigAooooAKKKKACiiigAooooAKKKKACiiigAooooAKKKKACiiigAooooAKKKKACiiigAooooAKKKKACiiigAooooAKKKKACiiigAooooAKKKKACiiigAooooAKKKKACiiigAooooAKKKKACiiigAooooAKKKKACiiigAooooAKKKKACiiigAooooAKKKKACiiigAooooAKKKKACiiigAooooAKKKKACiiigAooooAKKKKACiiigAooooAKKKKACiiigAooooAKKKKACiiigAooooAKKKKACiiigAooooAKKKKACiiigAooooAKKKKACiiigAooooAKKKKACiiigAooooAKKKKACiiigAooooAKKKKACiiigAooooAKKKKACiiigAooooAKKKKACiiigAooooAKKKKACiiigAooooAKKKKACiiigAooooAKKKKACiiigAooooAKKKKACiiigAooooAKKKKACiiigAooooAKKKKACiiigAooooAKKKKACiiigAooooAKKKKACiiigAooooAKKKKACiiigAooooAKKKKACiiigAooooAKKKKACiiigAooooAKKKKACiiigAoopKAFopkk0cKlpZFjUd2OBWNd+MNFtSVF15zDtEN369KmU4x+JmkKVSo/cVzcorjbj4hQqSLbT5HHrI4X9Bms+Tx/qTE+XbW6DtnJ/rWDxVJdTsjluJl9mx6FRXnDeOtXPQW4/wC2Z/xoXx1q46rbn/gB/wAaj65SNP7KxHl956PRXARfEC/UjzbSBx32kr/jWjbfEGzfi5s5oj6oQ4/pVrFUn1Mp5diY/ZuddRWTZ+J9HvSFjvERj/DJ8n861VZWGVII9RW8ZRkrpnHOnODtJWFoooqiAooooAKKKKACiiigAooooAKKKKACiiigAooooAKKKKACiiigAooooAKKKKACiiigAooooAKKKKACiiigAooooAKKKKACiiigAooooAKKKKACiiigAooooAKKKKACiiigAooooAKKKKACiiigAooooAKKKKACiiigAooooAKKKKACiiigAooooAKKKKACiiigAooooAKKKKACiiigAooooAKKKKACiiigAooooAKKKKACiiigAooooAKKjmmjt4mlmkVI0GWZjgAVxWt+OJHLW+lfIvQzsOT/ALo/qayqVY01eR0UMNUrytBHValrNjpUe67nVWP3UHLN+FchqXjy6lJTT4lgTs7jc35dB+tcrLJJNIZJZGkc9WY5JpleZUxc5aR0R9Dh8rpU1efvP8Cxc3t1euXuriSZv9ts1XNFFcjbe56kYqKskFFFSQQSXM6QQoXkkYKoHcmjqDaSuxoUsQqgknoAKSu9utKh8N+Fbh4sNdOgV5sc5YgHHoOa4KtatJ07J7nNhsSsReUVotBKKKKyOoWrljq+oacwa0upI/8AZzlT+B4qlRTTad0TKEZq0ldHbaZ4+5EepW+P+msX9RXW2l9bX8ImtZklQ91PT/CvHKns766sJhNaTvE47qev1HeuynjJR0lqeTiMqpz1p6P8D2SiuU0PxrBdlbfUQsEx4Emfkb/CuqByOOa9KFSM1eLPn61CpRlyzVhaKKK0MQooooAKKKKACiiigAooooAKKKKACiiigAooooAKKKKACiiigAooooAKKKKACiiigAooooAKKKKACiiigAooooAKKKKACiiigAooooAKKKKACiiigAooooAKKKKACiiigAooooAKKKKACiiigAooooAKKKKACiiigAooooAKKKKACiiigAooooAKKKKACiiigAooooAKKKKACiiigAooooAKKKKACiiigAooooAKpapqtrpNqbi6fA/hUfeY+gFJq2rW+j2TXNw3siA8ufQV5fqmq3Wr3bXFy+f7qD7qD0FcuIxCpqy3PRwWCliJXlpEsa34gvNanzKfLhU/JCDwPr6msuig15EpOTuz6qnThTiowVkGaSiipLCiiigArrPAWnia+mvnGRAAqf7x6/p/OuTr0TwFGF0OR+7Tn+Qrpwseaqjzszm4YZ266Gp4itGvdBu4UGXMZZR6kc/0ryjrXtJGRivKPEFgdM1ie324Qtuj/wB08j/D8K6cbDaRwZPW+Km/UzKKKt6Zp82qX8VpCPmkPJxwo7k15yTbsj35SUYuT2RUorR1yCGz1SS0t1xHbgRgnqSByT+OazqGrOwoTU4qS6hRRRSKCuj8PeLJ9LZba7LTWmcerR/T1HtXOUVcJyg7xMq1GFaPLNHs1vcRXUCTQOJI3GVYdDUteXeHvEU2iT7WLSWjn54/T3Hv/OvTLe5hu4EngcSRyDKsO4r2aFeNWPmfJYvCTw07PboyWiiitzjCiiigAooooAKKKKACiiigAooooAKKKKACiiigAooooAKKKKACiiigAooooAKKKKACiiigAooooAKKKKACiiigAooooAKKKKACiiigAooooAKKKKACiiigAooooAKKKKACiiigAooooAKKKKACiiigAooooAKKKKACiiigAooooAKKKKACiiigAooooAKKKKACiiigAooooAKKKKACiiigAooooAKhu7uGytZLmdwkcYyxqavO/GWvG9uzp9u/7iBvnI/jf/61Y1qqpxudWFw7xFRRW3Uydb1ibWr9p5CVjHEUf91f8az8Ugpc14cpOTuz7GEIwioxWiEooopFhRRRQBseF4be61yO1uollimRlIYe2cj8qPEmhtol6FTLW8oJiY9vUH3FSeDYjJ4mtmHSMMx/75I/rXa+KtO/tDQpwq5khHmp+HX9M1206XPQb6o8fEYp0MYlfRpXPL69J8Eps8ORt/fkY/rj+lebDpXrHh+3+y6DZRYwREpYe55P6mjBL32wziVqKj3ZpVx/j7TvMtYdQQcxHY/0PT9f512FVNTs11DTZ7R+kqEA+h7H869GtDng4ng4ar7GtGZ4/XeeAtO8u0l1B1+aU7EP+yOv6/yrhXRkkaNhh1JUj3r17SrX7DpdtbYwY4wD9cc/rXnYOF5uT6HvZrW5aKgup5j4hVk1+9DdfNJrNrpPHNm1vrv2jHyXMYYH3HB/p+dc3XNWVqjR34SanQi12CiiiszpCiiigArovCviFtKuRbXD5tJT3/5Zt6/T1rnaKuE3CXMjKtRjWg4SPalYMAwOQehpa5LwTrpuYP7NuHzLEMxE/wAS+n4V1te5TqKpFSR8ZXoyo1HCQUUUVoYhRRRQAUUUUAFFFFABRRRQAUUUUAFFFFABRRRQAUUUUAFFFFABRRRQAUUUUAFFFFABRRRQAUUUUAFFFFABRRRQAUUUUAFFFFABRRRQAUUUUAFFFFABRRRQAUUUUAFFFFABRRRQAUUUUAFFFFABRRRQAUUUUAFFFFABRRRQAUUUUAFFFFABRRRQAUUUUAFFFFABRRRQAUUUUAFFFFABRRSUAY3ijV/7J0l2jbE83yRf1P4D+leXHJOSck963fF2pnUdakVTmG3/AHae5HU/n/KsKvFxNXnn5I+ty7D+yopvd6hRRRXMeiFFFFABRRRQB2fw+siXur5hwAIkPv1P9K7Z0DoyN0YYNZnhywOnaHbwMMSFd7/7x5P+H4VqV7tCHJTSPi8ZW9rXlM8kt9PafXV05eSZ/LPsAeT+hr1pFVECqMADArmtG0Yr4n1LUZFIRZWWLPcnkn9cfnXT1lhqXIm+50ZhiPbSil0X4sKSlorrPNPNbiwDeOzahfla6DY9j81ek1yUltn4kRtj/lj5h/BStddXLh4cvN6noY2pzqn/AIUc/wCMtL/tDR2ljH722PmL7juPy/lXmle1HkYry7xRpH9k6s6xptgm+eL0A7j8P8K58bS+2j0MoxG9GXqjGooorzj3gooooAKKKKAJrS6msrqO5gbbJE25TXren3seo2MN3F92VQceh7j868ersvAWqbZZdMkOAw8yL69x/X8DXbg6nLLlfU8jNcPz0/aLdfkdzRSUtesfMBRRRQAUUUUAFFFFABRRRQAUUUUAFFFFABRRRQAUUUUAFFFFABRRRQAUUUUAFFFFABRRRQAUUUUAFFFFABRRRQAUUUUAFFFFABRRRQAUUUUAFFFFABRRRQAUUUUAFFFFABRRRQAUUUUAFFFFABRRRQAUUUUAFFFFABRRRQAUUUUAFFFFABRRRQAUUUUAFFFFABRRRQAUUUUAFFFFABVDW7/+zdIuLoY3ImEz/ePAq/XHfEG8K21rZKf9Yxkf6Dp+p/Ssq0+Sm2dOFpe1rRgcLkkkk5J6miiivBPtQooooAKKKKACtPw7Yf2jrltCRlA29+P4Rz/9b8azK7T4fWeWu7xhwMRqf1P9K2oQ56iRyY2r7KhKR2wooor3T4wMAdqWkpaACiiigDHNv/xV63GP+XIrn/gYrYqPyV+0Cb+IKV/DNSVMVa5c581vJBXP+MtN+3aI8yj97bHzF9x3H5c/hXQUyWNZoXjYZV1KkexpTipRcSqNR0qimuh4vRUtzCbe6lgbrG5U/gcVFXz7VmfcJ3VwooooGFFFFABVnTrxtP1GC7TrE4JHqO4/Kq1ApptO6JnFSi0z2iN1ljWRDlWAIPqKfWL4SvPtnh63JOWizE34dP0xW1X0EJc0Uz4erB05uD6BRRRVGYUUyWVIYnkkbaiAsx9AKy/+Ep0P/oIxfkf8KlzjHdlxpzn8KbNeisn/AISjRP8AoIxfrTk8SaNIcLqVvn3bH86XtId0W6FVfZf3GpRUcU0U674pFkX1U5qSqTuYtWCiiimAUUUUAFFFFABRRRQAUUUUAFFFFABRRRQAUUUUAFFFFABRRRQAUUUUAFFFFABRRRQAUUUUAFFRXM4traWdgSsSFyB1OBmsCy8a2V9eQ2qW86tKwUE4wP1qJVIxdmzWFGpUTlFXSOkopBS1ZkFFFFABRRRQAUUUUAFFFFABRRRQAUUUUAFFFFABRRRQAUUUUAFFFFABRRRQAUUUUAFFFFABRRRQAUUUUAFFFFABRRRQAUUUUAFFFFACV5v44uPO8QNEDkQxqv4nn+tekGvJvEEpm1++kPeYj8uP6VxY12ppHr5RC9dy7IzqKKK8k+nCiiigAooooAK9J8ERKnh1GA5kkZj+eP6V5tXp3g058NW+Oxb/ANCNdmC/ifI8nN2/YL1NyiiivXPlxaKSloAKKKKACiiigApKWigDybxEmzxBerj/AJak/nzWbWp4lO7xFe4/56Y/Ssuvn6mk2fcYd3ox9EFFFFQbBRRRQAUUUUAdx8PbjMN5bZ+6yuB9cj+ldlXnngKUprkkf8MkByPcEY/rXodezhXekj5LMocuJl5i0UUV1HnFPVf+QTef9cH/APQTXkcERnnSJSAXYKM+5r1zVf8AkE3f/XB//QTXlGn/APIRtv8Arqv8xXm41XlE+gyl2pVGjof+EB1Qj/j4tvzP+FMl8B6tGhZHt5DjoHI/mK9E7Clrf6nSOL+1MTfdfceRBtS0G9xmW1nXtnGf6EV33hjxGNagaObal1EPmA6MPUU7xdpsd9oc0m0ebbqZEbHPHUflXC+GrprTX7R1OA8gjb6NxXOubD1FFPRnc+THYZztaSPV6KSkDqeAwJ+temfPDqKTOKg+32e/Z9qh3/3fMGaV0NJvYsUUgIPQ5paYgopryLHy7Ko9ScVCt9aM21bqEn0EgpXQ0m9ixRSA56cilpiCiimh0JwGBPpmgB1FIzBRknA9TUK3tq77EuYWb0DgmldDSb2J6KTrQWCgkkADuaYhaKri+tGbat1CW9BIKnBz7ikmmNprcWiiimIKKQkDqcVA19aI217qFW9DIKTaQ0m9ixRTUkWQBkYMD3BzTqYgrnPF+tXWkW1t9kZVklc5JGeAP/riujrgfiDLu1G1hzxHEW/M/wD1q58TJxpto7cBTVTERjJaHU+G76fUdEhurlg0rlskDHQkVq1heDf+RZtvq/8A6Ea3K0pO8E2Y4iKjWkl3ZV1b/kD3v/Xu/wD6Ca8w8Pf8jBYf9dlr0/Vv+QPe/wDXu/8A6Ca8w8Pf8jBYf9dlrjxX8SJ6mW/wKv8AXQ9ZFLTSwUZJwKhN9ah9n2qHd6eYM133R4qTexYopoYMMggj2p1MQUUUmcUALRUD3ltEcSXESH0ZwKkjmjlGY5FceqnNK6HZ2uPoopKYhaKZ5qf31/On0AFFFNLhTywH1NADqKaGVvukH6U6gAoprMFBLEADuah+3Wm7b9qh3enmDNK6Gk3sWKKaGDDKsCPUGnUxBRRRQAUUUUAFFFFABRRRQAUUUUAFFFFABRRRQAUUUUAFFFFABRRRQAhrx2/bdqFyx6mVv5mvYjXjl8MX9x/11b+Zrz8dtE9zJvjn8iCiiivMPogooooAKKlW1uJITMkEjxg4LqhIB9zUVFmLmQV33gG8EmnT2ZPzQybgPZv/AK4NcDWx4Y1QaVrUUkhxDJ+7kPoD3/A4rfDz5KiZx4+i6tBpb7nqVFAORkdKWvcPjhKWkpaACiiigAooooAKa7BI2djgKMk06uf8YaoLDRnhU/vrn92uOw/iP5fzqJyUIuTNKVN1JqC6nnd7cG7vri5P/LWRm/AmoKXFGK+fbu7n3MUopJCUU5UZyAqliewGafPbT2zKs8LxFhkB1Kkj15osw5le1yKiiigYUUUUAb3gtiviWAD+JXB/75NemV5j4N/5Ga2+j/8AoJr0+vXwX8P5ny+b/wC8L0Ciiiuw8kp6r/yCbv8A64P/AOgmvKdP/wCQjbf9dV/mK9W1X/kE3f8A1wf/ANBNeTWkiw3cMr52o6scexrzcZ8UT38pV6VRHsnYUVzv/CcaOOrTf9+6iuPHulxqfJinlbsNoUfiTXZ7el/MeUsFiG7cjNPxLdpZ6Bdux5eMxqPUtxXnOgwtca7ZRpyfOVj9Acn9Aal1rX7vXJlMuEiT7kS9AfX3NdP4M8PS2mdSvFKyOuIkPVQepPua4W/rFZcuyPYhD6jhZc796R1r/cP0rynS7lrfxFbSGQgfaQGOexbBr1Zvun6V41KCblwOSXOPzrTGtrlaMMqipqpF9v8AM6LxB4gu9avWsdPEpt1OAsQJaU+px29qyZPD+rxJ5j6bcY74TJ/IV6H4e0SLR9PRdoNw4zK/fPp9BWvVfVnU96b1J/tGND93RiuVfiUNCge10S0hlBV1jG4N1B61meJ/FA0fFrahXu2GeekY9T7+1b08qwW8kznCRqWb6AV5K7Taxq24t+9upeM9snj8qrEVHTioR3ZlgaEcRUlUqbLUtQWms+JZ3cGS4IPzO7fKvt6D6Crj+BdYRNwWBz/dEnP6ivQLGyh06zitYF2pGuB7+5qzUxwcWveepc80qKVqaSieWWmqax4cvDCxkTb9+CUkqR/nuK9D0bV4NYsVuYeD0dCeUb0rL8a6Yt3o7XSgeda/MD6r3H9fwrmvBF+bXXBbs2I7pSpH+0OR/UfjUxlKhVVNu6ZrVjTxmHdaKtJbno7/AHD9K8k02/aw1eC6Lvtjly2D1Xv+letP9w/SvHI1V7tEb7rSAHH1oxjacbCyqMZRqJ/1udDO+u+L5ne3jZLRThV3bUH1/vH+VUb/AML6rpkBuJYQ0a/eaNs7fc16db28VtAkMMaxxoMKqjoKe6K6MrAFWGCD3q3hFJXk9TGOZSpvlhFKPY4nwz4rFvZT2+pSs3kJvidjksP7v16YrMkk1zxddO0SsYVPChtsaf4mse9hFvfTwL0SRlH0BIr1TRbOOw0i2gjUAbAzY7k8k1jS563uSeiO3EunhP30I+9LbyPPrzwhq9lAZ2hWRUGT5TZIH0qbw14luNNuY7e5mZ7NzghiTs9x6V6TXk/iC3S0168gQYVZMgDtkZ/rSrU/q7U4MMJiPrqlSrJbHrAOap6pqdvpNi91cN8q8Ko6sewFN0SVp9Es5WyS0K5z9K4vx1qDXGrLZqf3dsoyPVjz/LFdtWryU+Y8rDYb2tf2b2W5Su9W1jxLeCCLzMMflgiOFA9/8TVtPAerOu53t0JHQuSf0FdD4L02O00ZLogedc/MWPZew/r+NdHkeornp4dTjzVHds7K2PdGTp0EkkeXT2uteFrlH3vCCfldGzG/sf8AA13XhzXo9bsyzAJcRYEqD+Y9jVrV7KLUdLntpQDuQ7T6EdD+def+ELtrXxFCmflnBjb+Y/UUtcPUST91lNrG4eUmrTj+J1niu31qdbf+yHmAG7zRFIEPbHce9cFqcN/Bd7NS8zzwoP7x9xx9cmvXhXnHjn/kYW/65J/WjGU1bnuPKq7c1TsvXqVLDTdfuLNJLFbgwHO3ZNtHXnjPrW1oOl+IYNZt5bxbgQKTv3zBh0PbNbng3/kWrf8A3n/9CNblXSw6tGV2ZYrHT550+VW1WxV1b/kD3v8A17v/AOgmvKtLukstTtrqQEpC4YgdTivVdW/5A97/ANe7/wDoJryvSLaO81a0t5gTHJIFYA9RWeMvzxsbZXb2VTm2NmafX/FsrGCN1tQcBQ21B9T/ABGoLjwXrEERk8mOXAyQj5Nekwwx28SxQoqIowqqMACn1q8IpaybbOdZnODtSilE8s0XX73RboAu7wA4khY8fh6GvUIZo54UmjYMkihlI7g15v40tUtfEUhjAAmjWQgevIP8s/jXYeD5jN4btsnOwsoz6Amow0pRm6b6GuYQhUowxEVZvc1ru6hs7aS4ncJHGuWNec6r4j1LXLn7Pa+bHExwkMX3m+uOta/xAvyotrBGIDAySD17D+tP8B6bGttJqUgBkdjHGT2A6/rRVlKpU9lF2XUWGp06GH+sTV29jKh8DaxMA8hgjJ6h3JI/IGq17o+teGmW5DsiA/62BzgH0P8A9fivT8j1FRzwxXMDwygMjqVYHuKp4SFvdepnHNK3N76TXaxg+F/Ev9sIbe5wt1GM8dHHr9a6Fvun6V5VYyvo3iVMNxb3JjYjuN20/pXqp+6fpV4eo5xae6M8fQjSqKUNpanjsrt9tf5j/rD3969jHSvG5f8Aj8f/AK6H+deyCscF9o6s2Xwen+QtcT8QiQ9jgkcP/Su2riPiH9+x+j/0roxX8JnHl3+8x/roWPh8SbK8ySf3i/yrptQvotOspbuY/JGuTjv6CuY+Hn/Hnef9dF/lV3xyJD4dOzOBMhf6c/1xUUpOOH5l2LxFNVMc4PZs4+61PVfE1+IV3tuPyQIcKo/z3NXV8B6qyBi9up67Sx/wpfBF/aWepyrcuEaZAsbN0znpmvQwQehzWFCjGrHmm7s7cZiqmFn7OlFJL8TzMQeIfDVyhVZkDEABfnjf2/zzXpFq0z2sTXCKkpQF1U5APcVKRRXXSpezvZ6Hl4jE+3s3FJ911Fooorc5AooooAKKKKACiiigAooooAKKKKACiiigAooooAKKKKACiiigBDXkWsxmLWbyM9pm/nXr1eYeMLfyPElwcYEoVx+I/wAQa4cavcTPZyeVqzj3Rh0UUV5R9KFFFFAHU+BNRFvqMlk7YW5GVz/eH/1s/lXb3GmWN2D9otIZc92QE15FDNJbzxzRNtkjYMp9CK9Y0bVI9X02K6TAYjDrn7rDqK9PBzUo8jPnM0oyp1PbR6/mZtz4I0eclolltz/0zfI/I5rIuvh9KObW+Vv9mVCP1H+FdxRXTLD0pdDghjsRDaX6mXoEepW1kLXUlUvDwkqtkOvb8RWrSUVrFWVjmnPnk5W3ClooqiAooooAKKKKAEJwPWuL1Pw1rOvam1zcvFaxD5Y0ZtxVfoOM/jXa0mKzqU41FaWxvRrzovmhuclbfD+0Uf6TeSyH/YAX/GtW28J6LakFbNZGHeVi38+K2aKmNCnHZFzxdee82QQ2tvaqRDDHEP8AZUCvMPEuojU9bnlQ5jQ+XH9B/wDXzXb+LdZGmaWYo2xcXAKp6gdz/n1rzQ1xYyotII9bKaD1rS9EJRRRXnnvBRRRQB0fgWPf4iDf3IXb+Q/rXo9cP8PYMz3twR0VUB+uSf5Cu5r2MIrUkfJ5pLmxL8rBRRRXWeaU9V/5BN3/ANcH/wDQTXktvF59zFDnHmOFz6ZOK9a1X/kE3f8A1wf/ANBNeU6f/wAhG2/66p/6EK83Gayie/lLtSqM64fDxMf8hFv+/X/16cnw9twQZL+Rh6KgFdiOlFdKwtLsec8wxL+1+Rkab4X0vTGEkcJllHSSU7iPp2Fa9LSVvGKirJHJOpOo+abuxG+6fpXjv/L/AP8AbX+texN90/SvHf8Al/8A+2v9a4cb9k9nKdqnp/mex0UUtegjwzO18ldAviOvkt/KvOPDYB8QWWf+eor1C/t/tlhcW2cebGyZ9MivKLGZtN1WCaRSpgmG8dxg8152LVqkZHuZb71CpBb/APAPXqWmRuskayIwZWGQQeCKfXonhlLVwDo94D0MD5/I15hojEa5YkcHz0/mK9D8VXqWXh+5LH55V8pB3Jbj9Bk/hXD+ErQ3fiG34ykJMjfh0/XFedida0Uj3cv93C1JPb/gHpz/AHD9K8eg/wCP+L/rqv8AOvYX+4fpXj0H/H9H/wBdR/OnjN4iyj4any/U9jFLSUV3nhnkOqj/AInN7/18P/OvWLP/AI84P+ua/wAq8o1X/kM3v/Xw/wDOvV7P/jzg/wCua/yrgwnxzPczT+FS9P0RPXlniv8A5Ga9/wB5f/QRXqdeW+LP+Rmvf95f/QRVY3+GvUyyj+M/T9UegeHf+Resf+uK1534m3HxHfbv+en9BXofh3/kXrH/AK4rXE+NrRrfXWmx8lwoYH3HB/l+tTik3RizTL5JYya73/MdaeFNcurOGeC5iWORAygzMMAj6VL/AMIb4h/5+4f+/wC/+FdJ4Pv0vNBhjDAyW48tx3Hp+lbtXDD05RT1Mq2Pr06kotLR9jz7/hDPEP8Az9w/9/3/AMKsaT4M1Oz1W2up5LcRwyBztcknH4V3NFWsLTTuYvMa7i46a+QV5x44/wCRgb/rkv8AWvR6848cf8jCf+uS/wBanG/wvmaZV/vHyOr8G/8AIsWv1f8A9CNbtYfg3/kWLX6v/wChGtuuil/Dj6HHiv48/VlXVv8AkD3v/Xu//oJrzDw9/wAjBYf9dlr0/Vv+QPe/9e7/APoJrzDw9/yMFh/12WuPFfxIHp5b/Aq/10PWqKKK9A8Q878ff8h6L/r2X/0Jq6PwR/yLcX/XR/8A0I1znj7/AJD0X/Xsv/oTV0fgn/kXY/8Aro//AKEa8+l/vMj28R/yL4f13OY8dZ/4SHnp5K4/Wo9L8NatqFilza3EaRPnCmVgevPAFaPxBtGW6tb1RwyGNj9DkfzP5Vf8BX6S6bJZE4lhcsB6qe/51n7OMsQ4yN/bThgYTp9DK/4QzX/+fuL/AL/t/hR/whviD/n6i/7/ALf4V6BRXV9Vh5nnf2lX8vuPPk8CasZlaSa2xuyx8wk9eT0r0DopHtS5pD0P0rSnSjTT5epz18TUrtc/Q8cl/wCP1/8Arof517IOleOTjy72QHqspz+dexI6uispyGGQa5cF9o9LNv8Al2/L/IdXEfEP79j9H/pXb1w/xDIMliMjO1zj8q3xX8JnHl3+9R/roWPh5/x5Xn/XRf5V1V3bRXltJbzLujkXaw9q5X4ef8ed5/10X+VdhTw+tJE45tYqbXc851XwVqFo7PZj7VD1AGA4+o7/AIVmW2r6vo8nlx3E8JXrFIDj/vk16zUF1ZWt7GY7mCOVT2dQaylhFe8HY6qeZtx5a0VJHKaR47WaVYdTiWLdwJk+6PqO1diCGAIOQeleW+J9Ih0fVvIgYmKRBIoPO0EkY/Su58JSyTeHLVpGLFQVBPoCQKMPVm5OnPoLG4akqca9LRPobVFFFdp5IUUUUAFFFFABRRRQAUUUUAFFFFABRRRQAUUUUAFFFFABRRRQAVw3xBtSLi0ugOGUxk+45H8z+VdzWL4tsje6BOFXc8WJVH06/pmsMRDnptHXgqvssRGX9anl9JS0leGfZhRRRQAVs+GtcbRb/L820uBKvp7j6VjUVUZOEuZGdWnGrBwlsz2iORJY1kjYMjDKsDkEU+vLNN8Uapplr9mt5I2jByokXdt9h7Vb/wCE51v1t/8Av1/9evUWNp21Pm5ZTXUny2sekUV5v/wnWtetv/36/wDr0f8ACda162//AH6/+vT+uUvMX9k4jy+89Iorzf8A4TrWvW3/AO/X/wBej/hOta9bf/v1/wDXo+uUvMP7JxHl956RRXm//Cda162//fr/AOvR/wAJ1rXrb/8Afr/69H1yl5h/ZOI8vvPSKK83/wCE61r1t/8Av1/9ej/hOta9bf8A79f/AF6PrlLzD+ycR5feekUV5v8A8J1rXrb/APfr/wCvR/wnWtetv/36/wDr0fXKXmH9k4jy+89Iqtf30GnWcl1cOFjQfmewHvXADxzrXrb/APfr/wCvWbquvahrGwXci7E6Ig2jPrUzxsLe7uXTymq5LnasM1bU5tX1B7ubjPCL2VewqjRRXlttu7PpIQUIqMdkFFFFIoKKKfDE88yQxrueRgqj1J4oW4NpK7PRfA9p9n0ESsMNcOX/AA6D+VdFUFlbLZ2UNsn3YkC/XFT179OPLBRPhq9T2lWU+7FooorQyKeq/wDIJu/+uD/+gmvKdP8A+Qjbf9dU/wDQhXr00STwvDIMpIpVhnGQetZEfhDQ4pFkSzYMhDA+c/UfjXJXoyqSTXQ9PBYuFCnKMk9Taoopa6zzBKWiigBrfdP0rx3/AJf/APtr/WvYyMjFYv8Awh+h+Z5n2Nt2d2fOfr+dcuIoyqW5eh6OBxUMOpcyeptUtJS11HnCYrhvF/hqRZ5NTs4y6PzMg52nu30ruqSsqtJVI2Z0YfEToT54nnOh+MLjSoVtriL7RAvCc4ZfbPetp/iDYhMx2Vwz+jFQPzya177wxo9+5eazVXPVoyUP6daoJ4E0dWBb7Q4/umTr+QrmjTxEFyxasd8q2BqvmnFp+Rx+q6xfeI71F2EgHEUEfOP8T7123hbw/wD2NZmSfBupuXwc7R2UVo2GkWGmri0tkiOMFurH8TzV6tKVBxlzzd2Y4nGqpBUqS5YjX+4fpXjsH/H9H/11H869jIyMHpWKvg/QlkEgs2DA5B85+v50YijKo1y9B4HFww6kpJ6m1RRS11HmnkOq/wDIZvf+vh/516vZ/wDHlB/1zX+VZk3hLRJ55JpLRi8jFmPnOMk9e9bCIsaKijCqMAe1ctCjKnKTfU9LG4uFeEIxT0HV5b4s/wCRnvf95f8A0EV6lWTeeF9Hv7p7q5tS8smNzea4zxjoD7U8RSlVjZGeBxMMPUcpdiTw7/yL1j/1xWovEeiLrenGJSFnjO6Jj6+h9jWlbW0VnbR28C7Yo12qMk4H1NS1tyJw5Wc/tXGr7SHe55PZXuo+G9SbCGKQcSROOGH+e9dTD8QbQxjz7KZX77GBH64rpL3TLLUUC3lskwHQsOR+PWseTwLoztlVnjHosv8AjmuRUa1PSnLQ9OWLwuI1rQfN5GRffECR0ZLG08snpJKckfgP8am8H3Ot3d9JcXEkkto6/O0pOM9tv/1uK2bXwno1owZbQSMO8jFv0PFbKoqKFVQqgYAAwBVwpVXLmnIwq4jDqm4UYb9WLXBePbKVNQivQuYpECEjsw/+tXfVDdWsF5A0FzEssbdVYZFbVqftIcpzYXEPD1VM4Hw94uXSLH7HcW7yorEoUYAjPb861dM8ayX+tx2rWojt5vlXGWYN2J9qtv4F0Z5Cy+ei/wBxZOP1Ga1NO0TTtL5tLZUfGC5O5vzNc9OnXjaN9EdtevgpqUoxfMyXVv8AkD3v/Xu//oJrzDw9/wAjBYf9dlr1aaJJ4XhkXKSKVYZxkHg1lW3hTRbS5juILRllibcp81zg/iauvRlUlFroZYTFQo05xknqbNFJS11HnHnfj7/kPRf9ey/+hNXR+Cf+Rcj/AOuj/wDoRq/qPh7TNVuBcXluZJFXYCJGXjJPY+5qzY2FtptsLa0jMcQJIUsTyevJrlhRlGs5vZno1cVCeFjRSd0RavpkWradJaS8buVbH3W7GvNXTUvDWqAnMM0ZOGxlXH9RXq9QXdlbX0RiuoUlT0YZp1qHtPeTsycJjHQThJXi+hytr8QYfLAu7GQOB1iYEH88Ypl58QV2EWdiwc9Glbj8h/jWpN4I0aVsrHNF7JIcfrmpLbwdotuQTbNKf+mjk/p0rPlxO10b+0y9Pm5X6f0znvDmoeINS1tLnzHlgJxNu4jC+w6Z9K72mRQxQRiOKNY0XoqjAFPropU3BWbucWIrRrTvGNkebeMNHksNVkukQm3uW3Bh/C3cf1q1onjZ7C0S1vYGnSMYSRGAYDsCO9d3PBDcxNFPGsiN1VhkGsGfwPo0z7kWaHPVY5OP1zXNKhUjNypvc74Y2jUpKliI3t1M67+IMZjIs7Jg/ZpWGB+A61zuq2upvbR6tqRbNw+1N/BxjI47D0Fd9YeFtI09xJFa75B0eU7j/hV6/wBNtNTt/s95F5kYbcBkjB+oolQq1I++9RU8bQoTXsYadW9zmfh7/wAed5/10X+VavirUL7TtLMlhGxdjhpQM+WPXFXtN0ix0hHSxhMSyHLAuzZP4mrhAIweRW8KbVLkvqcdWvCeJdW11fZnDaV49kiQR6nC0uP+WsQGT9R0rUm8eaSkW6NJ5XxwuzH5k1cvfCejXrF3tfKc/wAUTFf06fpVRPAujo4LfaHA/haTAP5AGslHER0ujqdTATfM4teSOPuJr7xTrW5I8ySYVVXoi+59K9K02yTTtPgtIzkRIBn1Pc/nS2Wm2enIUtLdIgepUcn6nvVmtKNHkvKTu2YYvFqslCCtFbC0UUV0HCFFFFABRRRQAUUUUAFFFFABRRRQAUUUUAFFFFABRRRQAUUUUAFIwDAg9CKWigDyPWtPbTNWuLUqQqtlPdTyKoV6B450k3NkuoRLmS34cAdVPf8ACuArw69P2dRrofZYKv7eipddmJRRRWB2BRRRQBu6F4Yl1y1knjukhCSbMMpOeAf61qf8K9uf+gjF/wB+z/jV/wCH/wDyCLj/AK7/APsorq69Sjh6cqak0fNYvH4inXlCMtEcL/wry4/6CMX/AH7P+NH/AAry4/6CMX/fs/413VFbfVaXY5v7SxX834I4X/hXlx/0EYv+/Z/xo/4V5cf9BGL/AL9n/Gu6oo+q0uwf2liv5vwRwv8Awry4/wCgjF/37P8AjR/wry4/6CMX/fs/413VFH1Wl2D+0sV/N+COF/4V5cf9BGL/AL9n/Gj/AIV5cf8AQRi/79n/ABruqKPqtLsH9pYr+b8EcL/wry4/6CMX/fs/40f8K8uP+gjF/wB+z/jXdUUfVaXYP7SxX834I4X/AIV5cf8AQRi/79n/ABrB13Rn0O8S3eZZS8e/cBjuR/SvWK89+IH/ACGrf/r3H/oRrnxNCnCneKO7AY2vWrqM3dHLUUUV5p9AFFFFABXS+CNNN3q/2p1/dWo3Z9WPAH8zXNqCzBQMk16p4c0oaTpEULD96/zyn3Pb8OldWFp89S/Y83M8R7KjyreRq0tJS17J8mFFFFABRRRQAUUUUAFFFFABRRRQAUUUUAFFFFABRRRQAUUUUAFFFFABRRRQAUUUUAFFFFABRRRQAUUUUAJRS0UAFFFFABRRRQAlFLRQAlLRRQAUUUUAFFFFABRRRQAUUUUAFFFFABRRRQAUUUUAFFFFACUUtFABRRRQAUUUUAFFFFABRRRQAUUUUAFFFFABRRRQAUUUUAFFFFABRRRQAUUUUANkjWWNo3UMrAhge4NeVeINIbRtTeDH7l/mhb1X0/CvV6y9e0aPWtOaBsLKvzROR91v8K5sRR9pHTc78Divq9TX4XueUUVJcW8tpO8E6FJIzhlNR14ux9cmmroKKKKBnc+Br21ttLnWe4iiYz5AdwONo9a6b+1tP/5/rf8A7+r/AI15BRXZTxbhFRseTWyuNWo5uW56/wD2tp//AD/W/wD39X/Gk/tbT/8An+t/+/q/415DUnkTf88n/wC+DWn12X8pg8npreZ63/a2nf8AP9b/APf1f8aP7W0//n+t/wDv6v8AjXkn2eb/AJ5P/wB8Gj7PN/zyf/vg0/rs/wCUX9kU/wCc9a/tbT/+f63/AO/q/wCNH9raf/z/AFv/AN/V/wAa8l+zzf8APJ/++DR9nm/55P8A98Gj67P+Uf8AZFP+c9b/ALW07/n+t/8Av6v+NH9rad/z/W//AH9X/GvJPs83/PJ/++DR9nm/55P/AN8Gj67P+UX9kU/5z1r+1tP/AOf63/7+r/jS/wBraf8A8/1v/wB/V/xryQwyqMmNwB3Kmo6X12S+yNZPB7TPX/7W0/8A5/rf/v6v+NcL45uIbnV4HglSVRAASjA87j6VzVLWVXFOpHlaOrDZdGhU9opXEooorkPTCiir2j6VNrF+lrDwOsj9kXuacU5OyJnOMIuUnobXgvRPtl5/aEy5hgPyA/xP/wDWr0KoLKzhsbSO1t0CRxjCip69yjSVONj43F4h4iq5dOgtFFFbHKFFFFABRRRQAUUUUAFFFFABRRRQAUUUUAFFFFABRRRQAUUUUAFFFFABRRRQAUUUUAFFFFABRRRQAUUUUAFFFFABRRRQAUUUUAFFFFABRRRQAUUUUAFFFFABRRRQAUUUUAFFFFABRRRQAUUUUAFFFFABRRRQAUUUUAFFFFABRRRQAUUUUAFFFFABRRRQAUUUUAFFFFABRRRQAUUUUAFFFFABRRRQBzninw2urRfabYBbuNeP+mg9D/SvOpEaJ2jkUq6nBBGCDXtFc54k8LRasGubYLFdqPoJPY+/vXDicNz+9Hc9jAY/2X7upt+R5vRUs9vNazvBcRNHKhwysOlRV5Wx9KmmroKKKKBjkbY6t/dOa9itZY7m2inTBWRAwP1FeN13XgjXFeH+y7hsSJkwknqO4/Cu3B1FGXK+p4+bUXOmpx6HX4H90flRtHoPypaK9Wx8yG0eg/KjaPQflRRRYA2j0H5UbR6D8qKM0WAxfFlzHa+HrnON0gEa+5P/ANbNeX10njHXE1O8W1t23W9uT82eHbuR7dvzrm68bFVFOpp0PrctoOlR97d6hRRRXMeiFFFXNM0y61a6FvaJuP8AEx6KPU00m3ZEznGEeaTsiOxsbjUbtLa2jLyOfwA9T7V6hoeiwaLYiCP5pG5kkxyx/wAKboehW2iWuyPDzMP3kpHLf4CtTFevh8P7NXe58tjsc675Y/D+YCloorrPMCiiigAooooAKKKKACiiigAooooAKKKKACiiigAooooAKKKKACiiigAooooAKKKKACiiigAooooAKKKKACiiigAooooAKKKKACiiigAooooAKKKKACiiigAooooAKKKKACiiigAooooAKKKKACiiigAooooAKKKKACiiigAooooAKKKKACiiigAooooAKKKKACiiigAooooAKKKKACiiigAooooAKKKKACiiigDK1nQLPWocTLsmA+SVRyP8RXnmr6BfaPJ/pEe+In5Zk5U/4GvV6bJEkqGORFdGGCrDINc1bDxqa7M78Lj6mH03j2PF6K73V/AtvPum02TyJDz5Tcofp3FcfqGkX+lvtu7Z0B6PjKn8eleXUoTp7o+joY2jXXuvXsUqcjtG4dGKspyCDgg02isTs3O20TxyhVbfVQQRwJ1HB+o/wrr7e6t7qMSW8ySoehRs141UkU80DboZXjb1RsGu2njJRVpanj4jKqc3zU3b8j2aivKIvEetQrtTUp8f7RDfzzTZvEGrzjbJqM5Horbf5Yrf69DscSyerf4kenX2qWWmxGS7uUjHYE8n6DrXEeIPGMuoo1rYhoLc8M54Z/8AAVzLu0jFnYsT1JOabXNVxc5qy0R6GHyynSfNJ3YUUtJXIeqFFaumeHNT1TDQ25SI/wDLST5V/D1rtNI8HafpxWaf/Spx0Zx8oPsP8a3p4epP0ODEZhRo6Xu+yOV0Pwpd6sVmmzb2p53sPmYew/rXoOn6ba6Zai3tYgijqe7H1J71aAx06UterSoQprTc+cxOMqYh+9t2EopaK3OMSloooAKKKKACiiigAooooAKKKKACiiigAooooAKKKKACiiigAooooAKKKKACiiigAooooAKKKKACiiigAooooAKKKKACiiigAooooAKKKKACiiigAooooAKKKKACiiigAooooAKKKKACiiigAooooAKKKKACiiigAooooAKKKKACiiigAooooAKKKKACiiigAooooAKKKKACiiigAooooAKKKKACiiigAooooAKKKKACiiigAprxpIhR1DKeoIyDTqKAMG+8H6TekssJt3PVojgH8OlYF58P7pMtZ3cco/uyAqfz5rvaKwnh6ct0dlLHYinopffqeWT+FdagJzYu49YyGqhJpt/F/rLK4TH96Jh/SvYaMVzvAx6M7o5xVXxRTPFzG6/eUj6ihYpHOEjZj/sqTXtGKKn6j/eNP7Zf8n4/8A8hi0nUpyBHYXLZ/wCmTY/Or8Hg/W5yP9FEQ9ZHAr0/FFWsFBbsylnFZ/DFI4m0+HzYBvb0D1WFf6n/AArodP8ADOladhorVXkH/LSX5j/9ataiuiFCnDZHDVxlerpKQmB6UtFFbHIFFFFABRRRQAUUUUAFFFFABRRRQAUUUUAFFFFABRRRQAUUUUAFFFFABRRRQAUUUUAFFFFABRRRQAUUUUAFFFFABRRRQAUUUUAFFFFABRRRQAUUUUAFFFFABRRRQAUUUUAFFFFABRRRQAUUUUAFFFFABRRRQAUUUUAFFFFABRRRQAUUUUAFFFFABRRRQAUUUUAFFFFABRRRQAUUUUAFFFFABRRRQAUUUUAFFFFABRRRQAUUUUAFFFFABRRRQAUUUUAFFFFABRRRQAUUUUAFFFFABRRRQAUUUUAFFFFABRRRQAUUUUAFFFFABRRRQAUUUUAFFFFABRRRQAUUUUAFFFFABRRRQAUUUUAFFFFABRRRQAUUUUAFFFFABRRRQAUUUUAFFFFABRRRQAUUUUAFFFFABRRRQAUUUUAFFFFABRRRQAUUUUAFFFFABRRRQAUUUUAFFFFABRRRQAUUUUAFFFFABRRRQAUUUUAFFFFABRRRQAUUUUAFFFFABRRRQAUUUUAFFFFABRRRQAUUUUAFFFFABRRRQAUUUUAFFFFABRRRQAUUUUAFFFFABRRRQAUUUUAFFFFABRRRQAUUUUAFFFFABRRRQAUUUUAFFFFABRRRQAUUUUAFFFFABRRRQAUUUUAFFFFABRRRQAUUUUAFFFFABRRRQAUUUUAFFFFABRRRQAUUUUAFFFFABRRRQAUUUUAFFFFABRRRQAUUUUAFFFFABRRRQAUUUUAFFFFABRRRQAUUUUAFFFFABRRRQAUUUUAFFFFABRRRQAUUUUAFFFFABRRRQAUUUUAFFFFABRRRQAUUUUAFFFFABRRRQAUUUUAFFFFABRRRQAUUUUAFFFFABRRRQAUUUUAFFFFABRRRQAUUUUAFFFFABRRRQAUUUUAFFFFABRRRQAUUUUAFFFFABRRRQAUUUUAFFFFABRRRQAUUUUAFFFFABRRRQAUUUUAFFFFABRRRQAUUUUAFFFFABRRRQAUUUUAFFFFABRRRQAUUUUAFFFFABRRRQAUUUUAFFFFABRRRQAUUUUAFFFFABRRRQAUUUUAFFFFABRRRQAUUUUAFFFFABRRRQAUUUUAFFFFABRRRQAUUUUAFFFFABRRRQAUUUUAFFFFABRRRQAUUUUAFFFFABRRRQAUUUUAFFFFABRRRQAUUUUAFFFFABRRRQAUUUUAFFFFABRRRQAUUUUAFFFFABRRRQAUUUUAFFFFABRRRQAUUUUAFFFFABRRRQAUUUUAFFFFABRRRQAUUUUAFFFFABRRRQAUUUUAFFFFABRRRQAUUUUAFFFFABRRRQAUUUUAFFFFABRRRQAUUUUAFFFFABRRRQAUUUUAFFFFABRRRQAUUUUAFFFFABRRRQAUUUUAFFFFABRRRQAUUUUAFFFFABRRRQAUUUUAFFFFABRRRQAUUUUAFFFFABRRRQAUUUUAFFFFABRRRQAUUUUAFFFFABRRRQAUUUUAFFFFABRRRQAUUUUAFFFFABRRRQAUUUUAFFFFABRRRQAUUUUAFFFFABRRRQAUUUUAFFFFABRRRQAUUUUAFFFFABRRRQAUUUUAFFFFABRRRQAUUUUAFFFFABRRRQAUUUUAFFFFABRRRQAUUUUAFFFFABRRRQAUUUUAFFFFABRRRQAUUUUAf/9k=;" vertex="1" parent="1">
          <mxGeometry x="60" y="241.00000000000003" width="150" height="70.59" as="geometry" />
        </mxCell>
        <mxCell id="xVC4U7UjAwEscI-Leogj-2" value="CPU, RAM, Load Average" style="text;html=1;align=center;verticalAlign=middle;whiteSpace=wrap;rounded=0;" vertex="1" parent="1">
          <mxGeometry x="220" y="241" width="115" height="30" as="geometry" />
        </mxCell>
        <mxCell id="xVC4U7UjAwEscI-Leogj-3" value="" style="shape=image;verticalLabelPosition=bottom;labelBackgroundColor=default;verticalAlign=top;aspect=fixed;imageAspect=0;image=data:image/jpeg,/9j/4AAQSkZJRgABAQAAAQABAAD//gA7Q1JFQVRPUjogZ2QtanBlZyB2MS4wICh1c2luZyBJSkcgSlBFRyB2NjIpLCBxdWFsaXR5ID0gODAK/9sAhAACAgICAgICAgICAwMDAwMEBAQEBAQHBQUFBQUHCgYHBgYHBgoJCwkICQsJEA0LCw0QExAPEBMXFBQXHRsdJSUyAQICAgICAgICAgIDAwMDAwQEBAQEBAcFBQUFBQcKBgcGBgcGCgkLCQgJCwkQDQsLDRATEA8QExcUFBcdGx0lJTL/wgARCAKKA2IDASIAAhEBAxEB/8QAHgABAAEFAAMBAAAAAAAAAAAAAAMGBwgJCgECBAX/2gAIAQEAAAAA3+AAAAAAAAAAAAAAAAAAAAAAAAAAAAAAAAAAAAAAAAAAAAAAAAAAAAAAAAAAAAAAAAAAAAAAAAAAAAAAAAAAAAAAAAAAAAAAAAAAAAAAAAAAAAAAAAAAAAAAAAAAAAAAAAAAAAAAAAAAAAAAAAAAAAAAAAAAAAAAAAAAAAAAAAAAAAAAAAAAAAAHjyAAAAAAAAAAAAAAAAADx5AAAAAAAAAAAAAAAAAAAAAAAAAAAAAAAAAAAAAAAAAAAAAAA8eQAAAePIAPHkePIAAAAAAAAAAAAAAAAAAAAAAAAAAAAAAAAAAAAAAAAAARpAAjkARkgBHIePSRHIBHIEciOQA8eQAAAAAEcgAAAAAAAAAABHIAAAAAAAAAAAEcgAAAAAAAAAAAAAAAAAAAAAAAAAAARyAACOSOQEchGSRyCMSBHJHIjSI5BGSRyRgkjkjSRpEZIAAAAAAAAAAAAAAAAAAAAAAAAAAAAAAAAAAAAAAAAAAAAAAAAAAAAAAAAAAAAAAAAAAAAAAAAEciORHJGkjkjEgRpI0gARgkjACSOSMkjSRyRpIwkjAAEiMAJEcgAAAAAAAAAAAAAAAAAAAAAAAAAAAAAAAAAAAAAAAAAAAAAAAAAAAAACOQAAAjkAAAAEcgARyAI0gAAAAAAAAAhTAAAAAAAAAAAAEcgDx5AAAPGHlM5zSAAAAAAAAAAAAAAAAAPmx91NR7J8xx4nAAAAAAAAAAAAAAAB6+WPOuy0qo8lr+2BrHYLMAAAAAAAAAAAAACOQEZjThBQtYS2JAVdu5+0RyEYJEaSMkCNJGSRyI5I5IwEkYJIySMJIwkjSRkgACLAHA4LnZdXi/dpHHfEn5dvt5fIMLNMWC9E322bboLhAjkjkAEdibfRZb/SAAAABHIAAAEWJmsMZw5/8A6j0KH1l0HuP/AGfc9Of3RpNmTc/Faw14OprNoAAKC5a9fjNTsAAAAAAAAAARU7pV/AZV7QvSaC2K4/1flap8nc0JDRjz859dKuQqPWloB6l8mAAA59NG26zNzKbKYAAAAAAAAEckfvq6xrn3IXBYza8aOjqvNfM+jtdW0v6FiuLnLProqAPi+0jkRyRyPz6DuH9MZyWY39sckciOhP2aiEkb82lq+9JBHR8lYEcgABHIEcgI5I9NFIX02nTWP1YX5yKovE2mcutg2DOc31NF/P31r58gJI9AGtG9OFXx9YmUvPtqfpS5O63XTl90ZcjuCtTuhbcfqf0OY5fbsWy00v8Acxgryi7RNWtNZQdIWdxr3588RPfN/ZroS7K7/RhJGJI5I5AAHzYiYHsvs9o9bbY/9KhNWNKbRKxrmZy462O6f7mDmEXkem3rRbpF/T2WX06AuRbDPPHL7CPCzzuD6UORnFreDFsJwj5zbybNKE1g/g/b3g4KcjbY7fDVV8nZPkBrY5Xay2hNX1BeO1PIEAAAAeMIsQTLzN/01a5mX8lQYlYQZP59+PdyrYF9znloa0Ih47T9NGkfpv2ytNXOBvZ39eY+cbTRuE6UORmzHaaoDiWvZ17XGYWciny94+CHI3tv6ZWBPJDvZ37cV9G9guQTH3j5tn2q3/AAAAIbd6xYS9+xP3wJuhlPHIsPrxvNsf8Af2c6+lPtcvwByh4AdzmgTSL3DXOcr+uTuVqYtfw+bg+lDkZsx2mtcfKP0h7kRyx60+8fBDkb6YNuj5uD7bBvU4wd3nQwOevR/wBqt/wAAACGl9fluj6tmdaUdgLklV9aV1ihhzU+yGqpGvvkv3X9EoMXON7Y11Vc8ekfuNuO5TcAu539Io/hc3C9J3IzZjtNa0OVrpk24DmD1Y94ODHI30zbbkXB1te3icae9/fqNBOiHtVv+AAAAH5mNliLeLrZ7ff+ZaT7LufDrkpNklmRM9OSPBLpK3A+SwHKHjt2AZic8ekfuNuO0VaAOlzbwaO+e/cJ0ocjNmO01Z7iczY61/1VhuNuj+8TBjkb6ZttyLg62vdKvEdW3YvXag+OnH3tVv8AgAAAB6e0GDln1yswa4nip3DK1U9b5J30lLK8kmOGc2yqrsRdU9PdJ23tzx6R+42463nHFZvcPl7hBqRg3CdKHIzZjtNOeXSLmztkoTTHZmfvFwX5G+mbbc9eDfa902abeb3JrcTHp3xodqt/wAAAAIqe15ej3rur/wAu2PyMtb/e4Ld6CtSVIvOb/QTnWc8ukXuNuOY78zeC6TZ/jHm70ocjNmO00/P0H6SvwF/c7NT3eHgxyN9M225FwdbXumxph0CUIuftJ0z9qt/wAAAAIKQwRAMmsg/eQBT+MlP3/u4FsaDv394Y3WSyLvnZH9e69kvgv4FBYlVVltS1s8haas5c6vHjHar7tlMYjS5d/PZq+v7AAAAAEX4GC/pW1x6N/Lov1nzw/XAAAAAAAAAAAAAePIAA9VtP2aqk8+LN2EuvkPOAAAAAAAAAAAAAAAAAPR7gAAAAAAAAAAAAAAAAAAAAAAAAAAAAAAAAAAAAAAAAAAAAAAAABHIAAAAAAI5ACOQAABHJHIAAAAAAAAAAAAAAAAAAAAAAAAAAAAAAAAAAAAAAAAAAAAAAAAAAAAAAAAAAAAAAAAAAAAAAAAAAAAAAAAAAAAAAAAAAAAAAAAAAAAAAAAAAAAAAAAAAAAAAAAAAAAAAAAAAAAAAAAAAAAAAAAAAAAAAAAAABHII5AAAAAAAAAAAAAAAAAAAAAAAAAAAAAAAAAAAAAAAAAAAAAAAAAAAAAAAAAAAAAAAAAAAAARyACOQjSAAAAAAAAjkBHIAjkRyAjkARyAAAAAAAAAAAAAAAAAAAAAAAAAAAAAAAAAAAAAAAAAAAAAAAAAAAAAAAAAAAAAAAAAAAAAAAAAAAAI5ARyAEaQAjJAAAI5I0gAEcgAAjkAAAAAAAAAAAAAAAAAAAAAAAAAAAAAAAAAAAAAAAAAAAAAAAAAAAAAAAAAAAAAAAAAAAAAAAAAAAAAAAAAAAAAAAAAAAAAAAAAAAAAAAAAAAAAAAAAAAAAAAAAAAAAAAAAAAAAAAAAAAAAAAAAAAAAAAAAAAAAAAAAAAAAAAAAAAAAAAAAAAAAB/8QAHQEBAAICAwEBAAAAAAAAAAAAAAcIBQYBBAkCA//aAAgBAhAAAAAAAAAAAAAAAAAAAAAAAAAAAAAAAAAAAAAAAAAAAAAAAAAAAAAAAAAAAAAAAAAAAAAAAAAAAAAAAAAAAAAAAAAAAAAAAAAAAAAAAAAAAAAAAAAAAAAAAAAAAAAAAAAAAAAAAAAAAAAAAA1jZwAAAAAAAA0Cu807bmsuAAAAAAAGr12/THbv2dPkmZQAAAAAAAxNT+/ZzNY3uQtLeVAAAAAAAHFM5llitX3hbIYeRAAAAAAABXqvdv8AD7FIEQRFbPsgAAAAAAGK8/MVaSUo9ljD0p9Be0AAAAAAANWq5CV4t7/KoUSXuksAAAAAAAML5Wcbjis36IbOAAAAAAADoUhm3HVPtPZoAAAAAAAAPnnkAAAAAAAAAAAAAAAAAAAAAAAAAAAAAAAAAAAAAAAAAAAAAAAAAAAAAAAAAAAAAAAAAAAAAAAAAAAAAAAAAAAAAAAAAAAAAAAAAAAAAAAAAAAAAAAAAAAAAAAAAAAAAAAAAAAAAAAAAAAAAAAB/8QAHAEBAAIDAQEBAAAAAAAAAAAAAAcIBAUGAgMJ/9oACAEDEAAAAAAAAAAAAAAAAAAAAAAAAAAAAAAAAAAAAAAAAAAAAAAAAAAAAAAAAAAAAAAAAAAAAAAAAAAAAAAAAAAAAAAAAAAAAAAAAAAAAAAAAAAAAAAAAAAAAAAAAAAAAAAAAAAAAAAAAAAAAAAADuuFAAAAAAAACX7t1WjbmedAAAAAAADu7t/HcxTrZPgqsgAAAAAAAbz9FdNQ7mdpgWnrfogAAAAAAA/QOvkF2++u3qN0UYAAAAAAACfbIU33HPcHL0t1J8AAAAAAAGXdjZVy4HsY23Fr6UeQAAAAAABt5ukesXP+56kGr/JAAAAAAABk26c9nYla9cAAAAAAAD6TLxmVJcaR+AAAAAAAAAAAAAAAAAAAAAAAAAAAAAAAAAAAAAAAAAAAAAAAAAAAAAAAAAAAAAAAAAAAAAAAAAAAAAAAAAAAAAAAAAAAAAAAAAAAAAAAAAAAAAAAAAAAAAAAAAAAAAAAAAAAAAAAAAAAAAAAAAAAAAAAAAf/xABNEAAABgECBAIDCQ0FBgcAAAACAwQFBgcIAAEJEBITETgUICIWITEyNDdAYYIVGBkjMDVBUFFWV1hgJDNSY6AXJSZigJBCQ1RxcoGS/9oACAEBAAEMAP8AQg/a/q37P/Q59n6T9n8r9n1fs/8ARR9n6f8AZ/00HVv4b66ve2/pX7P0bfw8N9Xpkgkgoz4vDeysfqYyoA9KUkZsnsp1Yd+74eG/9U7C238QePjrIe0x1rCzPuacALucaceccpPOEadrFS2FcpZj4S+Ku6vD477+/rYfTvt4C221uP2hbB38dbft/Tv8b4dun+oPSP8AmDrx2/boZoSw79e+22pzkZWsIGakOdROa+47UU2zJUz0NAJCl5ROXP8ACHgqQRld6ItjeYs/bxBBIWRsdSU2YVbqWJSvPTOaVfJMxrDcThgjjU2NRFDZETWTWAijM2ciVKYX/Ltt4/07t+nbV+XcfUgGUhvZdlyx9yZuR7GLb3ThbyRW1aAh9X+0GQeLDkhcTCYAwMrEuBYeRNh2AiA2HLQNSH8hXqo1HPISrTfHJF1ALFv8b+nd/eEDbWbaYXpNeK9vg9WBU7P7FGAyOswgo41ha1FAAdLJapVDb8YqZbdgdcTEqH979TRgej3BN2nvFGoXIBnoLQsbBzPDeQoNjlUJfynIEhjb/FHE5okjSpbVbO6Hsjs2PaLt9+orSaLTjAXND0kLfXyRztoLGv0hnlEhE8Si3OL9kRMjVKasWdjgTbKMrclpkcM6R3xOFOk9xW6lOApS2jLyjoHntl1XZpI2a8JCuJovjLJlBqJkyGgGyIFdWlXluxlFLq1lzbIWj6JN8oMdK+VntsxuyHta37//AA9/j5HNff8AWHH8e47pGrJWJEyxKPYRP636dvHbbWX0cMda0TvJAeoXqUPjOW5p0UwsVGPspUqZEmJSoySyCuXV4e+IOurbf4A636tvf1MIJF561GtMlaiVZF0UA+1eeY6t4zHKP1NYzlWUwQSBKMQkjU5oHtrQurceE5L7PiLbx9QwYCQDNOH0Azn4n7koVO1RYzvm6ZIoUHLVByxacaec2tq93XJm1pQKVyyD8PHMOfJyVjXSzq3pVnCgzKSpO+VEWFTq0MXMhKZLOU2XUUhaEeqUv20cfpgnmtWyY5qWYY5nRDLmJOJ6RAcySz6DZNhxKqIRJLEnToU2sWVvEPuHIp0dWNgdV8QgfLACidr7yXhTKvSd9h/XG49tvHfw1J2BDJ4+8x5xL600rirjEZE7Rt1J6VPa12tYx1ATMX4UtfiOtpCD2dgh+L077h39jkeoTpSRHKzyiwLroqtsEMpZPGfcxFc9WOG4Ckc7Zu4kXJ1hID0ikBxft+O/V8Dg2o3RIpQOKctQnvymDqukXpbUAwxgxBnJrrF3OFrjuo4O3qcVTNJYwbLMY6veBELNYaYEWFlStBJV5psagNGYv0ljqzAbqvhKVCq5HEknAMINAAZeTnDCo27iHF9gKJNAJhIMNsgI1eDJQDnBT9pNizjTD8X6raYBGQ7KFv0HjL3avPksBoBpWiAg1ipwl1E/ibLYOQEmdmBP+CAxM/8AVzzWNmHVOYre6sVXluo1H66ytdUbnaA0KUgvYfa0hblK5YjQoyRGKK8iKSCQ5ji6Tbbw/Zrf2fr3uTIVor4I2RiAW5PsunsynSoaiTvylYHta7eozL5VDlIFcZf1aAyq8qUzmaQzWIApEpKOKUAAYUYEQJ9DWyfRd1jLqEPTRo3Gu7xQsLkDsmbh8Pg1tyyRudtoClJ9a7iWAwUkkj3MJA9yqRrzVztg9iquyouBLHl3fSxGMxlhhkfaIrF2hM2NPqmJUxikhWYlKEo/Jubm2syUbg7OSZAnLumoTj9kRVsw0w9OrSriSVSMws8n1OJ8vNWZsW8SMYhBxpjzbLciKKjD2mCe3+s6WvVrCcNG+WTFW41imESlZQjotJmh3B67w/MkfSmOD48oWxM22vVrypLQM9kxRco72/rvtjV7GTfRpLPI4znR+fwSVj7UWmjE7m/qI33iN99TtyHIJnKngQ+rXa1jtGgPtqMYjQdRO2wNtxba333222Fq7rI3ryJHqkYwbuSkxSuUqFas4RyiuscpdOSCXZxNCythGIMIAn6VD+9DNkmHpgCRnROU9RkohUihTiNrkjWYkUdrWO9zKmRekgsmViE3lD228B+PiHICLfcC1a9naAHSEoewywC58aW0Dkcfp+nUZ/Rtrhu0elpjF6GqVKPYp8/JcZuRSBin9IAZX1xbg4y5DuVQ3jAbLmr9I3VnvLibZOW44riY9KjYBH3C0LLdFA1jpYsoWKPd9Of32f8AXDyqh7qzGSGHyxYuVSGyLLgtTQ51nlhSRKxseSXFys6aKlsax9Re41il08m1gug3iczB6kK7Vc3Ja9ROAHWtLCfo4dinxb/ukuboLlAnSphZ1z+Qjy1uk6PTZy+5vB0kshfL+stO8yBzXk64mXneu/SZQpRKCFiVSaQd7vpz++z/AK9305/fZ/1waXx4e6ouE55eFzibrL7iiwWklzrX9QpUcymVv5a5D3opUDsS03pYj02ujkzLkzk0r1KFZj1xPsi6cWIGyZPZthRjiEZVQW/8W6snNOTBWlMbZ5ORuCD/AIzftA+Tp9cS1atbcKbncWxWekVe76c/vs/6s3io2EnrGvaroYI2PUsmswn7sc/TeVO785apDMjIegFiMcDsVwMa8OM669yvazGgRe0cnXPL3iFVdi+NZEmooErnt0Z05NXmpVlyizHFqaRDGMQxjGIQiTTkpwFJBwijKJ4h+TVGK0iUibqpYw5E5u13kzgtazlA3ZVHZb7vpz++z/rFU45VjFjwqUnmHHfTTTdgBEaYLYIbRyVStg1DHAwFrVIiur4+u1rEZtLG/TFw6PaF9Wv/ABC28dZOPpjtYxjSEf8AZ8d6wImEgPf3hME1sAXsDbwBzm8HY52yHsr6kAYCbQpxg0kcY45+0PtdGqHnB02gaM1eb3HGbQRnnqJAhee8EBO2wNtgbfBy4vL8c7ZahbRC/FxNjHJZRG42H2BNyBM2N6BuQlAKS8syM1mTDwNe/dmBrpLt+GyhP8A3vX4bKE/wCfNfhsoT/AJ81+GyhP8AAJ81+GyhP8AnzX4bKC/wCe9VHP09rVbX1mp241ATxsPnBojkxsj3Jnhtj0caljq6QLhIZXTFpJdXz3JxDVc8G22Gqfw9xsadQhbGJC/sELjbzI35xIbWjNPL2WZWWMrXjPUoYZqi+HBk1ejekkKGMpYqxG8FOywIO6Vd8aGrvvADJXHxArf5JEi32P6EMY/bGMQtcF7zCWdy4mXneu/VNwAm1bYretD3ITeX+BDj38w7lr8CTG/5h3PWG+IiDECKzCLoJuolO3FDzdXVqmNx6qd3Emkmqbx9uC/3wyP1RBlz4dF+C5cy9CFTLLWibQfZXCAyTiCBS7Qp7jU1LlEUkkKfnKMTBhcGV26x9PR1+y1/nJBon5Om1xPPIxdW/OieF7knczOhlTimbIQyzDgx3Y0tZ62GWXFZCpsWtJ5UsrcoTYsYXMD1BZvJq3l8dnMMeD215xZvhnyQpGH2o29ohRriL5lmY0wIiJQxYUOwXFyXvDisdXdYesXVvV1hW/Jk0PrSHOcgdoPwab7e0BKucT6JxYyb8Gm/GVEcsg87icoMsarrCqOTKohZcOc487BGMHX0dXLE/wAreN/03f4N99ZC22pNPPgcaWdJXa12tdrWJhoCXOaEb/H3/Tofw7+GroLN3tCYbj+HHFsJR1c3Hlh8BeHPcPtbe1rKiLlKWZilJQPx/a1iu8mIpe7sm4/xP6NePgH9nPiyoDkWYslUiB7NXuhLHZldPB/skh58bgAxbY39AOrXaM/wD12jP8A9doz/AAD12jP8A9CAMHx+WIyU9sxYx4QH+wbxrvnCovlwssVWCtKmZLykjWA6Y8uMPeayH1dEKRZFogKtcL3BlifWlvyWttmKWgDyMLAbsMk0ARl8T3CBkqof3wFSMwEEa1wXvMJZ3LiZed679Yh+ajHXnaU8aKrracWS+e0inM0kVjzSTzuUqxqnfEzG5/yjuFjrpuOMSNtXVZBKahbPAK5j6ZoZeWZWHkGysgC8sSRMgm0ijzxFH57jEhQGoXRt/OSDSb+6I1xPPIxdW/LhO4xsVt2PIrcmzaBcy8uIRjIw5C0ZJXFM2le7LXBUsNWF0uqpVKgQ0ilUkQpj1qo0BZWUV1uOQN52DZqs0wSWnaold3WXD6uhqcJrpjrjfXOM1fooNAG4rczlkXjhW2S9eroNPWwAjLkqmV0fZcvqqZFBC56xL8ruNf0z2Q7/AA6s+W+4yGuzyXuH0k7vHnHKTxiNM7X+Xrtf5eu1/l6x+ewMNhoiDRdJfs77j8d/f6dvf9rWSsTNbJmVJCSf7PjPKEymPrIkoMCFT4bB/wDbbx3394W2+vg97w98O3xtZEblBq91LH8btf5eqB2EC1I7sHQd/Hf4utun3+fGlghqC0Kgsgkr8RrF60kly0DU9llqAnH+vxTLQTWNlpJ21uUhPQxthcpRIGGMNJPdXRZiSxWMRqLodtvReNh84NEcqRJKRUvUaNMUEsrlxa5Qpfsv3loNH1FxtjUyaRMMbS+ydD4wzQiJxmGsCcBDZzuqvkFr1JYtbuZITC+no1wXvMJZ3LiZed679Yh+ajHXnxWJOoYMNpijTD6R64NFdoGik7CssZYdnL1OLNXaGE5YrXttThKA2/nJBpN/dEa4nnkYurflwZSCAYyTxUEAO5yWAAclUlGg6wrggKXLAA+LwaRjBk/LwhH7OYUnUxDFm/H9EPtn64LVfoXGa3LZywkIlHqcaeu0CCZ01aKJMEKjWJfldxr+mb9O/gHUpjLVK2dYzOxITCbBrB6ga4eygsShv7Wu1rtaRmqUKtMuRi7aiCyZJMo23PafcARi+HU3iDXN48rZHMPgF2jkxqaSkH79ZBsUyKYFpBREoIOblC69q7QkCNA7mKzIPMC5sxFPZbcpRg3326PH9OTbyEDawR0se3X2tQ+RqofIm6QIiQGDislb5YyInxuH1FbbfH58SukDrqxclJjOj775rhG5SoolIXXHCauQSEHrZe5IR/GCmZLP1xpJj27Ojk/Ojk9u6w1Yu4WNIH2pkw0zFej7jHrjXfOFRfKnPmjqvnxYGRQ05lzFeYAQC4W/Ai8yiUnGDqC3OSR5bkDs3KQHpedhy1BA4HM5s6mAKRCGMYhjH8bgu+YS0OXEy87136xD81GOvPizMal2w7fV5BYhba4OUwQu2NktiQDQenepxg5egkGUrVHkRoBCQ+wsRjBpLvvulSmC1xPPIxdW/Lgz+V6bczvk6nTh+cF+uDX5ophrNhjUyHEvIFuRgEMzXBRl6ApffkCPPCBZ6nGvl6E1XQcATnBEs1iX5Xca/py9Akc0hqRcQWeRLcdG5YIxXE12yMbtUc7Zu8M9hPOK7H1a7WqrsA+CO4ilG4htaJalckpC1EpKOJ38fEW/w6cWtveEw0bkkIVEuVBV4tNEaSkVJdMtIV80mlqvuUNYMsoCcvYBYQgC6OiNnb1bgvUBKInElUTOSOD2f1BL7WvR/q1jpITUjw5Rgwf4nfw9/ffmYEBoRhGAAg8QbFNXjPcy9QxoRbQREtWoFSZegUmplWCvErjtntbLVV9PCZmm3w+pf2SdU42Q4+XWZJC0w8qMo55lTYx8ylw/RG1naXWQuzawsaA9c4YRYyIsXqRaIkt7Bko1xrvnCovlTnzR1Xz4zlNqF7RWF8tSMRoNcLbMBnsiuWfH2aOhZEw58V7MFpQxlfjJAHcpS7a4L3mEs7lxMvO9d+sQ/NRjrzyBq8u6aWsurVO4ACdmtyYXZyZHlGYjXYAZTBxgukK6RHGe45nemmRNra+MbimXoOWRN/wXG+tHqx5uv6NrLsGSWvP5bZEsVd92RfLE2kfyJNrieeRi6t+XBn8r025nfJ1OnD84L9cGrzQzHT20IJCzPLA5E+kIrmrJ6pi1J5V0hAMCzFy+nnGy6olajUSYpS11YsQtWGMM+gj0ndGPlY1jxGp4Y/z+ePhDWxZRX68ZJXVLbTdCTUyfWJfldxr+nbbePwi8deG23vbb+G/RtuEXjv46t2vjYs8Dd0BP+7e1rtagVjvUIP7AP7U2xWfRmXEBE1r9tlAf/iHWwNxbePwbCCHffx30/SZmjaQa14cCyC7JsldNz/QkwBpWntaSNytceUkQpzDj2yqZy5jAEpgPJDXFQJIgqIe3BX6U5bB2/wDrnfFGQfIaun2s56391Bkzi7ZeLs6PiU6QCPQaoPiIZLUElRsbdKypRHYfxsYgcQSGeUY7IT3HjS0iSl6maqZ0qOtjjHXTKkihtqqDMsHJms9mlkSFZLJ7J3OQO7c2r3dwRtTWgPWLOHdw/NqTLQXNczeWZO+XGu+cKi+VOfNHVfO0q5jFv19LK1maP0lnyMx9nGNloPdcTdNuLTO8usfdkD2wuSlvcqK4xNkQ9uSMV3wkiaEj4zuO4EPeKrmwRKr/AOLpbtjNq6N1DGyK+QK1alaqUrFqk09RrgveYSzuXEy87136xD81GOvqcVbDRexP6/JuumkZrPrGPPW8cYQlMbEuIkERi/GmpdagAKZVRM2lXZXGnYAoFCaoKdXnrbsv61chJcOY2rKjnVZpF8sR6RfJEuuJ55GLq35cGfyvTbmb/cnacPzgv1wa/NFMOXFOw2cLRYib/rhrEqk+scsuLpxgdzllbv4RNcG401ZqUJJdjU/JWxbOONLW6VCcCtqgkjmuyLy1ujJ93KX2RIQgbeWJfldxr/UG+/j722pIibHFlckTwQAxKYUDqH2gez29dvQQjCIAw+yJqsqdNAQgTPh4wAvabbbdIk7aPTlck8XljABWmS7L1i5zPErcFZ6k3t67X+XqoK63jxQZE8J/BcHbb399/Xs6rIFcERcYPY8ZSPzLkhwh7CiildI8d3QMsZ5lAZzXLscxT6HvUecORYRmmAJKAIRlF8PLJu9j0i1HCT4qw4qYA05i6Ah+Slik8z58bD5waI5U580dV+pkbjTWWTsHHDbFaR9eSfD5v7HdWucxxw+VRHkSUceYAkgkRpmKvDCt66FrdKLWQL4HC81oDFatydtOvYK1BbGTgveYSzuXEy87136xD81GOvqODa3uqBY2uyMpWky+4TzoUsdrCxdTgUI5NFJPC3hZHphHnNjdOVGYw3ZkU7lNdXwdWtT5k4OwvEnFmCug3Ld+nKL5Yj0j+RJtcTzyMXVvy4M/lem3M75Op04fnBfrg1+aKYc80eFq02OvebOx29CY5DYNX2LUr+dGLJhjxHHLlVdLWndz+VG6tgzrIV1n8Olkxtwxtq0bFcSHyw9Yl+V3Gv6fvrb3tw6nh25UPkgy/jej/Vr0f6tej/Vr0f6tej/Vr0f6tej/AFa9H+rXa1WFaNqdMgk7puE9Tttvt07+Ogh8Nvh/IyCLxqWN5jPK442PaF/wMxAkhoj3KgIwASHhy4XIjSziKHbRDgtCUpWIwHV9U8TYD/VndMVFah6BdZVZReUKPvQsV/5dK40hb0TUhRtranKTJfVsLELGa1VRq6dUpGFy4HDAwmKP9K2qI0Wq1xooKoBgVVvUEZY1upTjZj7NnxwlUxpGEvLxBaOpisHNW81tVkXizjqUY44+zp/cZTNaUhb4+M+LuOEeeGp/j9DwNsc/VnVXVxZzf9yLEgLFJkzvw0cK3k8ao2my0oobgDh5ClBCxpolhUntrc3NKJM2NKBMiRzqtK/s9sSM1jwlkk7ftiDisDcAw461wAYQFgCWAHxJdD4rO48vis2jja/M33oWK/8ALpXGoNXECrJqUMFcQ5mizdy+HQ8RMWRDEMeOtcCFCaFpWsnc99ryqYnGnLnLIdEZ01DY5nFWh+bn/huYZShQJaqpJCjNjHDnwziigC1FRzYtGwRiNw9rSsMSj7YzNssh8VnrCvis0jTc/M33omK38ulcaZWVqj7K1R9hak7e2/T+nbx2FtqRoBOTG7IQ7+12tdrUdr1+khoNyEgk6dfRg+gIm569pTUMyIF4loU6jRlYzUoIxjYjdCT9Augfsi7WkbccuVJkZAOo5sSFIECFCX8X+kPs/Qdtttbh2328NH1XDjzz1JqQzqb4NGWvcA0bGRsPoCDbbYPgHYO3Tt+3Xt/sFrf9m+2pnVyd7ONc2cQSFjlGnZkGMlybjydVVEBDUe6NcV0g8Nurfx/qsRZYw9IygDDsWAkIAAAAAf8Aumf/AL/14n/l/wDZ1//EAF0QAAIBAQIJBAkLDQ8EAwAAAAIDBAUAEgEGEBMUIjJCUmJygpIRFyAjorK0tdIVFjAzQ1Njc3WTwiEkJkBQUWB2g5Gjw9MHJTE0QURFVGFkcYGEs9Q1ZXSwobHw/9oACAEBAA0/AP8A2pN265hYbyYnpu5HWs3vSKmA3EtPgeG4fK2fwrqpnGhfB8buh42HBZp3jIjvmR8eSjRwKMw8Ou6Hsfo/qD3HY/CVWG7hiU/ALSwF94y2R/PaIjDHRGJmd3iMz2Ns8qgMRZdAtRm2Fxmpbewhfit6+uPg2UOrA0e+TS+DPZu8+7bdzgHKd19nwbVNRrjkKVJzcheuOxx3SH8IKoEkl4TbcUvNXcGuO9tWL3KCgFXemzOF4Vv/AD2+nYPc5ygYBdPb8K1y4+PBwmOfPlntXOR7CquQCH50bXfwfzdTX/td1hO6U6R3qOPS3+hetvJgqGOGDpnnCLwbccmXIP8A+L923+B+lYt+JMPxH5wbbsWUOYb0T2S8Gw+5uG7f5a+MLQZiJK84N4L6zzgX7R8GBM2Lf10t9A9wvYADVxfo92RMD489iN0yv8I2PYaKgqlSuct0kMz1FWPbWNckx0/MxjWHg2H3VVclgfj2H+a1toVZJhwfXucMOhdsRXTreLt8wHlvhNO/0wIrSNmVDbfunwMDbUfIO6X2qrVZEbV0nJDnpAr9vy3oW/LehaQC2iV27qM+7H1LUapIeXxTO8F4RYO5Zm2xKUW8G4cr0OtZQYBFYDdAR5uX+3Db/HIWzfDXAuMD2hOzD1ZF3v0bku9Oxd4nRh93jb/TXtBaYhbksHD2RIDG+JdyIXiIt2yjZFqmNsc9d576KUe4Hw+0e5Zpsa1jSvmRt2zYdpB3VRoyjc5p8CwXt2br52svjUs/mZprd4NveUV6Pf8A0hrCytufmNIgD/qY2cT4WQc3pUbbhzk+8S07Bh4m7aiLj4K3Stc0jndh8R28k7uxtD9pUWNhkSnl+YAUG+Zn2AWG8WG19ikUaFJzTZKOOpOXrtM+DYDLi+frgrd4dQ4sExuJP49pAHN+7P1LTojIzMH3xaNzDaBJYouUG4Ychg62Wku7CAMdWRL2+oG1bBgyhrERHcALBtAEkGeJYtkDlgvx7Hsks7w4fzZHrNbFsG8JCe6VqibNGItbMn/Vj/V8m1GPOx//ABn7nQPuZaALG2fGPWUhgXwpYHyw15GSJKzUqsMVfdMNe2iADNs+M9gLZm6+qPDSKlJ+Pks1+gN0OEcphcISHUKxAZBJpqLlNlH/AHuEvU6arp8Vq3JzVNYGvAmRt+cEr3gB12Hubw4Cs25KrVVILjqjPu65cgA2Vhuj9pRIXrhq4iftslplHigfMADLp5KulcmHQKUAKn5luuBy3SQMU3/ebt63y0n/AI1q/ommSqpKCQ65Gv3AA1gu4Gv926dBQh7BHXwmzX7B9EsGSQ5alCO8bDzYWiRgwMLB/CxuHXM+mXZy4Q2MB96j/HYeLk2v3hTfux18xK9TLfvXVt1C54bB9OxaoVFWrHL44N3n7NjwXhIbSlFcZvLbg2Gh/aBWY59Lkj8ZseEOC31ctFp7NCQX85ntLR4qem0sHRtWJsibMks22uknnDPrlahAE7GOYrVPRr+pFA/f5GxyB7JWpUVcWHEjDcTHSrYBYd0lbBW4h1wBm3my6OD2QNp8loJAf8TZb3oa9Ev9S/Zi7wsWd8C6fcwk0BCuSHqXFZ9O1Tx8xfiylFsNS2Yq+H5QO7HVNUusx0sHoMOw7RQJqZAfoz9gD3eZICOHXZYsGomNWY7jLoLP2ANpdRqkeMf6U7cFOqKZP+2f3Ek1KWwOZf1PA7GSnLZNLobHhHgt2MHZyTi0eGBceHab0LPNjWsYV8yNm+dm6ymPVec0eIE8PKO338DFCPUzVgwaqZy9r8qv0bbt7YYHGB7B5JJ5qE5hfxc/5E8w/BtgwWm1CILyH+RyGjrdMLYctTnTcYJ4jwRR0aL4bGZMdUBjJVGb/wBeh9ap6CLmpx+xuxerBkMaUar/ANcK97tQnTHvgqmm03/WjVgFxh3Ns8G3Yj7xTaAeak3Ph5vtxnzLoWPaa+ryXGXTYdvlJ3p2xrD1wVHDMabnK00A0VPfNjNoENTjtS13mypLP5dxYBtGw9wA1jsBmoavJUEisSg4wBl9McOsVj/nNUnulu67DyAd4hp800pb8enYPpjZxgpWNsFWaTf/AO5Rg2PjlalnVeO2KUOonoxJbEUwDDNncuWDECQYLkyjcAHp0XX1zyX8X/MsOymX1MWdwxPjWdvlJ3p2+UnenZWNcMAKVINpiGiD75kj31SpBN/eimP4DNWtIcvgC6IbxWb/AEXGkaJTRDg0aPmw6ZXjyRzvKfGaaXCfwZrsGo2FWW35yg+An7d/428Ngx5BFUgg84dRgm2C/vMsFnydQ9k922lL/pJ3Hz7XMNketu49LDUYfvzD3wt8pO9O1HxRo9OqmMk4QdUnyo0RQP0QGZwEhfH247xHtWbty6lMdLd12HkUevRKk051KaHBmWe089V0uVanozs+hNdfB4b8qAfuyOTtj3Fz/o8Z9xMHObBz3bnFmR1zs3Yo1CadOgAHAYLO+78qRWOyjvAQlcMTsrN52jYwtOcm5wIezvyegVy1NZi+dRobZVyfF/fFAG9Br9uRu3w6Q2+UnenZv7m+K5tawr5kfqcrXYf29gwWwX1NnFrR18zj5+zlRCho+dMj/V5OzakRFrEfhmYM8R+ENqSYdhZBqOkYNgD5AbX5rYMGUsHeme6pPjAv5Csg+9MwhqsTuGGSAeiSiLaIl7J9Mex0uzaLNTLWSjuHfV/B41sGWiYm0eGA/Gm2Z+ttVapDhh/qXCv6VoaFx1LHdWsc2AZca8FUzWizQjZjQcxt5wGX7+ft8uK/ZW+W1fsrfLav2VvltX7K3y2r9lb5bV+ytjTQYFWTEazOmgJICy4Z7+1b1uVnyleSoPWiLEiRzdJebdxYL1zOzQvhErNRcczphCTIAOmVotXhvq8WE+ccl8ZZ5w0BnIyx19m1Gp0ibKkN1EoixgvmeH4sBtR3mrF+jEVwFp/rTw35R+Bs5JIXk1LGRpxM+HGiMsGOMOA7tw7XNgqbJBN/n37R9Z1ZoDTnRlBxvC4tyQ5Zjdycq3a7keXRsl/F/wAyw7Y0Yy0ukHLFWeNATnDHv3L67+bv2/FxX/It+Lgf8m1eqi5xudACHms0nN3LizZftU4WdxjqUYrjqfBkjqREnuPeGsZ7gZE3NKeHeocXOe/yWagdMrEF/RoiJNRucgzuR/AsoL2iRHnBnlzAkhmf0tqeealQZyDjSVH8IDMmlL8e1zDb7G/PMPLLDOIZXTcEx4cYQlgw/nbtkhf0J6pNOJvIA9cL/PtC9thywuam4az2DBnGGraiTVyocle2Jq8cN1gb46tpiMxVIYFe0SpxtSSjmXtZfJw5Ma0M0Df9TIOwdRMOO9qI5VprmPfJew2ua5nfDNhs2zs7W0aCq/dDjeewkOWd0LNC9ogZ6oyVcg82C09QiskL2iMJ1Okt5AZwDT1yGydbRpqrmdDjQew4OWF4LHtZO1hip5vX9vBq1N6y2/7sH6zq9wxEAvmzb6WT6ttLweIFpkqW9vPzpB4o4O5iSNEaXEpmuPhDknwM4I/Cxy9Eu5m4t0N4czM6P+qtT8aKPKbzFSRZ9HuOxjZh8htzbc23Ntzco/ue4tn87DUz6VvW9WPKFZMdo+lRHsC+VOpDfaARwHIHvpnw4RHLjtKZNqmbPX9TKaY3En8e0vAyNez1q0qSq+nvR5v1UeDNrXHvA5TC6QlvWqE0EYwUpA3U0+ZJPUloDcRILVubh7OTtdyPLo2S/i/5lh27Y2LflysuLVFl1JoXvbNGAmZsOWzZtjBU5E+awt50k85qcjdWFlL0+tzwG/odPUY3zDlsvYAXyrU4BEFrDWYe+557ZuP3Qzy0uKwqDW7t0wPb0WWe/FZ4G0NqPNkQJsZm2iVGPNmDOmNtKX49rlvsb88w8mIhoGBEcN9L6u3XAzDfCOI3rnHhDLihTpdVocsQ7+WjhnHwb+8DxC7c49bI2LAxhhrve1Go9DlH076rIWxrWM2ABW2dp9QYqlqL3CmRu9xQ6g4CZyrYwTcwJFsIDbc8+QsBwky2BYHU6qwA0ypSt97z8QNkMtxp0+qrAdMpsnceg/HDZPetQZ2YIh2Hp20vXyGAWAl5O1lip5vV9udi13Mxh4nN1A9KzTvERFrkfcVOOcTpbY+EN3/PLV44CRfDR9TxOxaA4npDijs9Auz+fB3HYscqII/O5DVKE/mC7msYtTKM0g9+psnP+LKyVXF2JputsVCMGjyQ+dA/YMSqXDxcEhPUz6r0iV1Gvwj0LViox4EVfE6SYrAOsVqPS4cCPg+DjKFYeLb1uVnyleROJuL6wEdwNDVlxcxXocBQ8OdAqh+vtVajDhKLlyTFYeNahUyHTYax3URUisPBHuMYMXqhDG/uOYkswfPA+weTtdyPLo2S/i/5lh27Y2LflystbrlDpeEh4NIGYf8AsZMY8a/U0Gf3KmJG5+lefc454tQK00A2NJvtgH18xgPnW0pfj2uW+xvzzDyH+6bPAi5CqdAymhglYHsHw7H+5zP8uh2TiVVEKaO4cpWjgf6TJRKZS6RDIt31TNr3mHRQI9zW6XVKNNId71NNUhB/pzydrLFTzer7dd2MP9ong2SDlWafeZgjqlyGcB9why2qId017FnLwA1fvbcG0FsOCzNZbMG0puDYMLIO9GlL9peH/wC3LYA12rAmow/SG26tSGYCLriI2YwxEHb1zfHkYbdiznHLZg+8K9QfGw5Ipn3tm8DBuH4NnjsltCW8B8rB3GJrl4xwBEdYwjAYSkfMGZXOPJjFK0/Fl7D1FVO5cdB/LiGAg5f9p928DgYvwiPXm1NoampwL2z5NqhKkSpT2FfNrmnnDNnxhlb9zxPqzKIg1Dm7FPRz7/Zb0MnrerHlCsnrPoPkastboNDmK5YKjDD8dFqPV6fPu8WjOFn0bTYqnoaOwxLQzgH3GL9EqFSeRcEZRs+jY9e3a8kecouS/i/5lh27Y2LflystHxmok1vMa7Q/Hfkxfx2mG0N/MTo6jSfWAx7nFfEqlw5XJlSXNmXPmmhbPr8e2BC7fY355h5O2lVfNtOy3MFtKZ49u1vVfLodgxNqEq6O9oIaQf8AtZJCKHV4qr20mMb47v8AdDuY6K5V5A74Jbmo6evmmZO1lip5vV9vMG6QMC8OHBYtbR3a6uge2HhWHXzkcs4P5gyzDuyVj7kfvwWYN4WLK8JDkPaBoYCHDYsH8CHFd8O/YdnSjzo9TDq2EboiNo68LGGW6NiO6hZe5pXsjlmK0lY8Ll7fXH/6thykFwgK2NT5E+gtAdSNr9+p/PQR6nItHetqHqO4ajV3wDA9w7IAI0KsSTBMOtcF89hMrwT3e5ID0CmouHPqLuCInf5+wG8Vot9FDo6jvxqdFvbHLez3R2/aoSlxYsZAX3Pc082ALDjYdqqfqnjHJDWvTmj7Qs+BA6gdbJ63qx5QrJ6z6D5GrLTTZi5VyENhLTz8I+Zfzg9PJilE0ekZ8/8AqdJXsAHG+OGqYcGt3FTYBY1PQd8IcVR3wp9/39h658AZO13I8ujZL+L/AJlh27Y2LflysuMVAlxY+E9lUq5nIp/k2iJ2p8qRFlJaFw1OUebMD5azG2NCAp1eEdbMBe7zNub+YIuphO1QirkRJMdoNQ5LAvgazXtBlQs1QIIH2JNQm7kVHP49wOyVsY6pInyiHYE2nsByFh2BXyMFs+vx7Zhdvsb88w8nbSqvm2nZbmC2lM8e3a4q3l0O1ThSYUpfEiSGbMOqVsXKxIh3iG5n0X+8vDkMV2DtCNkWqQhK5plMk97enn76+XgwWrEUJEaQkvAPgMNlgbhZaPG0iVIafUWsN8z2QEdsrTTXFpcEiv6HTI3e0J5++zl4cOTtZYqeb1fcDDgtPO8N33F28PoZSK8yKRbHLDgt2NaOzVaPR9HuMHZ7GDDh1i5o71lF2RTvtLjP0MjdUVrG+ZW3ikd4EevYQw3bmC4pWc27nFbD3E0cBR5IfxiBJX7TKjnusX4X1RLVtIMypFbQH1nUUcaz3D98Tthkj6iqTXxOYCg4EOvg5PMvXLBtMpNUVLAuhJGPctuDJ0GOHXW5lm6unPb6rTw5YZwFpDpqK0r22bPechxcjvmwHI2bS3AiPGSo2ua5newBYL2zs9H710s7pjQ0sHbP++mPUDL63qx5QrJ6z6D5GrLjBT2QnhvjwPXwsWfYMOVgwWQedps8AuJqEJp6kpH0w3D7I2p71viy4zTS5DlbBrNewdkBcGrw5Awalc+HC5mWn1LXPaTiwQC/z9Js8DU2fpWnVgg5DriwjdASLhK0g2Naxp3zYbdszPjydruR5dGyX8X/ADLDt2xsW/LldxVjD11xlB/E5ux6oXPeX7/AeTAd8sX6sZkhXGcV23HPm6lrmuqntiVFPXYcc7EF1UvGKSCUrPj0aFnDP50bBnAioHvUOGn3mIheoAeGe9kzy/HtmVW+xvzzDydtKq+badlzTraUzx7dreq+XQ8mLsLMV6EgO+zqWrXBwBvvj+GGSUzA2fRJ46RTZXLMNw+WBCVrmsVGlRqikj4/rk45ha53oqzLjU5Inx/WxyDPmWisvwKJAHR6bD5YBvnyzIiy9rLFTzer7gYcFiQZNE+Fe9bcvZQ3hsO7IEG+PbiwpP07ffjI/aZyxe6OO+eWQGDNrL3EPTP2CaOtGlBsnuGg9pRhxhrW12hRZ7Aj1VAcAOO4mR4JWHajVSG6I79IGvlPVERDas3XKs4xAcFNzjQloZ53QG7bM3W4wT1hfXxhATsRl9Yu49blZ8pXk9Z9B8jV3Cs4ym1SNqTqe/3xB+OBap2WZmqv0dBuAE/3tO3H6WpladwBEb5kdr4NLS1XKvODgiRme0/HN6I2oTqXFhxhMzuhoKGbbNczYRYSYdu13I8ujZL+L/mWHbtjYt+XK7iUlkeRHcq8pimBcMGAzbCzTN8nFJ7bjkcfqa5moYfAnaId18GoRTjyVfGAzXy37r6o8dHpsb4+SzU6A3i5Nqvj5DRVKtcuJBOgzGaLEDdTeDbLXO2eX49swu32N+eYeTtpVXzbTstzBbSmePbtb1Xy6HleZvn4vt7zAnu3ziH/ADZ58Gwdle4VCKab3LWewYcsLwZTO43Rld5Ry3uZqJDlmQ20WiAjBGI9Ao4SalFUYI9+eYlhE3HzRHJ2ssVPN6vuBgwYbYYD8HgexOUDkhd1Fif1QLn27HsR4NZE+EEtJdBgXLF/UFOpwdSEa7D7/Uqi4Oo2QYWH+cwqRHTJ+euXy63dQAaqKyr0xM40LZtgGfDUt+LMT0LRUrQlChuApKhuAABwYO6brumIh6DLbz3Qs2Z9a3vR16qXPKbBszUwQOZg/wBU3OO8LJUGKKVUZ9EjyJLiUGbHOG0Lx6g4BtKjaM+TSKVHiNam8J5szUGxeHBknXNJnz6JGkyX5oBWF82DfK4AYBtTZISokyLQIiXIeos4DVGsNQ1l3S/qAuq05MzN/F5wdTo2PbGJWajHDqLk3LBrCVXORVg6lRNgeDaMu4pEZIJSoeAAXsWjS9KVFq8FUtC3XCVngBobd08I2/FyJ6GScStJgVKKEmM/NGLQziWah3DDAX+VvxZiehaTMZNbDpMNURJyTAVm8wUG3dARv/2YO4PWIvW5E9CzYzIrJlIpMeI4ksMTYu+oNi8GDU7hu3FqcJMxJfk5AGNjwf0bUZ0EOpGcAeDYNj1TmTKiHUkOMPBtHwd7i0+IESMHMBYYBtOzeGTAqEUJEZ2bMWBnAZqnrDgL/K34tRPQtTIqIsKLGVmUojpDNrStYbILHVwD9wXw3rwc7COXekOC6PQ47fekL+mu3wbg+nm7DwtAvp5ZBrUI8tloyAVg/wAAG7+EjTvEOfMRsO+Q5wuudsPcHrMAvam+iduIh1C6dlasYS3i4/wtHd/9sN//xABDEQABAwMBAwYICgoDAAAAAAABAwQFAAIGEQcTIRQjMUFQUQgSFSJSYXOBFjNCU2NxgpCRsxAkJTI0Q6HD0uKyweP/2gAIAQIBAT8A+9Evy6CTlBEKORvuj6P8e1NRWo6dazDL2MfHOmzKQt5ZpoAK8e667xvG86sW2gMUo5sym1CFkBpv+o0+zrGmiIV8oBf1I8ahJxlPMw9Ynh0cekdoZa9dRuPSD1ktulrQND9ul5+aXV3ikk7H1L18JZ4ti28pOtzTRo8fq8nati5WNNNmuQuNFVS1Q17/APzpbZZOWfFOGpqUx6YhgDIR+6HeOIrZa+a2B8xUcc+sQQO0JuNMnFP2Xz1tOreSLXILDngahY1zOP28a36Fuk9wqEgI+Ba2t2bces0TbaCSQBXleM3m68oNde7firk0HSRsVFi6Vw+usrxZXGXbfIoMHcoHUj5r/SoOUTmottJJdCw7PJ0BPcKyWXEjOyTy3oVdaCtj8cOQP5dXpXO5HuqRkG0Wxcvnh0SQFSORZNnkmW0ciQ3HQggfzTS+zjL26W9DLf8AqDiojLcjxN2EeUHTrbOKgJ6NzKIuUT0IIKLhA9RNYI3Uir5+BU6GTzW32SvEdn7RNql7Ny4gsfWGqP8AEOP7adF54xJPXWycpnCIy9LrK35l1bZ36rPGEEkv57oD+hrZxCtIrFo1SwaLvW9rhc95V4/o2sYw2fwi82lYA8YjXX6LrrZRkasZlLdofiH/ADHv+RVjZBJVdykjzq2njHv07OmU37iMkEY5fdO7m1wQPcpUw0lYiQdM5ZuUF0TrqeuuVd9bBcnScMH2NLXaLIHfoetE1n+MfCrGnkckOfHPN/ajorZ7tCZRLBDFMtX5A9YcxqvwB0pnk0DKPOQRkq2cLeLveZO84e6tpD5KPwnIVlTwLUo+9XzKxeYbRmRwr1ydEEHaC+v26aO275sg7arhVFYA2kdn5Dh+P5Q15NMx1q/D94DRUfbrahsjTxOOM1j6zlZprz9qx13QqCyR/j8o2l41xuVkOkd4rBtq2PZo0bp3OrWUlpxb3f2/SqSx2BmvOk4do5PesiCabsccxhmuq3btGCOmqx4JVth2pN8odIw0I5/ZqB4/TK/4VGxc1MgWREa7XHeghvRWyuKyGGxJrG5BbulkDoj3hLtDIFUkoSZWWQCySLNckHr8ylHg3ihHpGrX11hF1l5tI6waZbTc5jUwkzyl3ufb1L5lkc9wlZp29HcsvWAYfK57LiJj+ABHKXHzKNYrjMbiUK0hY6wBJC3ietQ+me0XzRN8ydsVPi17Lrfxpr4L+YrPr7nszFoNzcT8tU6a+h4v/dQng8YFHxlzGVRXfrqji413Wns93TvwYsGUvKjV/JoH21hH/Gs82YZXgr9wk6jL3LMn9XfIDVL/AF99eDbhjuDx9/kUk2KC8qRuR1hFP/Lta6yy8aX2i4esUALQBaAAPvY//8QAPxEAAQMDAQQGBQkHBQAAAAAAAQMEBQACBhEHEyFREhQjMUFQFSIyM4EIFkJDUmFxc9IQJDVTY5CxVJGTo7L/2gAIAQMBAT8A/uiI7NsvXx45MlGEtu/T63dfzBZy800Jr7q2abNJmcnY17LQzlGLRO/uuWHRCoHcBrQttFosAHR000raFsYmnU7IS2KtW97Zwder67ohX6YGvq1F7JM7lFnCNsJchuO8uOyHw19r4VleKSmHyRi5i0BfohbsjqCD5hs1h4ydzSGi5dDfN1irrb3cRZcaa4XijVEIoY0zS05t0zXzGxBN83k0ccZhdDkhUnKxsG169Ju7WqH9c6VJbeMIYKlJta7fAeKCOg/7OjSHygsUVUFjmNlUbeY3f6qgM4xfJ/4LJhW7/T3cFv8AjNfKEh5C9aGmUmp6ujYW66/3+GvmGMTHoHIIeXGurZ1bcdOX06avWj9u0etHIKDm0EGsnyZjisK6mHvFNHhbb43HwFZXmEzl0ne/k3RI1O4QB7JIcgKANxAAJJ8BXoKa3W/9EPNzp7XV79KSWdsnVq7da9uuieBGoINbPNojbNWDnDMx0WWcNjbZcfrj+usoglsZn5GEWB1b3kAnxT77D5eOJArDWRicWhI67vRaIE/ia29ZCq4ko/HkruxbjfrDnddUZHuZZ+1jmVuqzi4AVB4/hWzGKD6YXaXOSASuuNVdf6Q/TTTbNgrhbcF3c3HMtuFTuH4hm7AuL29qpXH7u5be9+N9ZHj0xgk8EFVSChcFm7geIHcRW0p+jP2Yvk9ntv2Ojj85G/Q+X7OdmDZ83bT2SJHoLcWzfn96lBYWgWjgANK2s3q35zKlTkh/tu7a2LNkVcsWcLcertbrh8TaK2lTzqcyuStVuJQZXlsgOQS4fs2R5c8ip1vCKuD1J+ej38ElfAitrsMjL4su8A1XYELfA8FKvcL3oIIXrdkjroPx8ujFGSUiwVegluHNpWA7yKipaOk2jV5HOQugAOFdYFbZIVROQYzqNuqLi3cr/dcKwnIvmxPNZK/3PuXH5R76zfDnL9+4yTGx19k/1X7DibSacQkswb9bfR7lukTp21pt/wA1gzVV3lcIkiNSHQW+CXr1kaKshj80xa8V3DRelklUFVm64IVSOhHl8RkEvBrb6Md3IcwDwPwrC9pC0y79GTKLVJXTsLhwGtSjJrNMHDB+37Ffx5HnWS4XKY6sb+gXDLwXtH/umUtKRnCOkXLfX7NxApy9l5pygHLl09WJ0AJN1bO8QUgUxKSVujxcaWj+SKeTkdHHR+7aIH8aziQipPIXT6H9zfprw01V8wY2KXPWtidxBLi0airFj0LfwFFUXDS4AjkRTrHMdeK7xWGa/wCKYxcVF+sxjWiB5+NZDlDbHmIcL8b7vZHM1LSrqafOHzy/VW4+YoqFFW1SzwINLbS49NG0ItHRuA509z+fcOQs3vDdL7IpLaRO2aBRFrd8D+qobLI2XRBC4tX8UCa2gTKUi/QZpH1W44/m+bd3d/dk/9k=;" vertex="1" parent="1">
          <mxGeometry x="350" y="222.44" width="143.5" height="107.71" as="geometry" />
        </mxCell>
        <mxCell id="xVC4U7UjAwEscI-Leogj-4" value="" style="endArrow=classic;html=1;rounded=0;exitX=1;exitY=0.5;exitDx=0;exitDy=0;entryX=0;entryY=0.5;entryDx=0;entryDy=0;" edge="1" parent="1" source="xVC4U7UjAwEscI-Leogj-1" target="xVC4U7UjAwEscI-Leogj-3">
          <mxGeometry relative="1" as="geometry">
            <mxPoint x="360" y="341" as="sourcePoint" />
            <mxPoint x="460" y="341" as="targetPoint" />
          </mxGeometry>
        </mxCell>
        <mxCell id="xVC4U7UjAwEscI-Leogj-6" value="&lt;font style=&quot;color: rgb(51, 153, 255);&quot;&gt;https://kfokam48:9090&lt;/font&gt;" style="text;html=1;align=center;verticalAlign=middle;whiteSpace=wrap;rounded=0;" vertex="1" parent="1">
          <mxGeometry x="70" y="305.59000000000003" width="130" height="30" as="geometry" />
        </mxCell>
        <mxCell id="xVC4U7UjAwEscI-Leogj-7" value="&lt;font style=&quot;color: rgb(51, 153, 255);&quot;&gt;https://kfokam48:3000&lt;/font&gt;" style="text;html=1;align=center;verticalAlign=middle;whiteSpace=wrap;rounded=0;" vertex="1" parent="1">
          <mxGeometry x="356.75" y="304.59000000000003" width="130" height="30" as="geometry" />
        </mxCell>
        <mxCell id="xVC4U7UjAwEscI-Leogj-8" value="" style="shape=curlyBracket;whiteSpace=wrap;html=1;rounded=1;labelPosition=left;verticalLabelPosition=middle;align=right;verticalAlign=middle;" vertex="1" parent="1">
          <mxGeometry x="490" y="170" width="80" height="230" as="geometry" />
        </mxCell>
        <mxCell id="xVC4U7UjAwEscI-Leogj-10" value="&lt;font style=&quot;color: rgb(0, 0, 0);&quot;&gt;Dashboard&lt;/font&gt;" style="html=1;whiteSpace=wrap;strokeColor=default;fillColor=none;labelPosition=center;verticalLabelPosition=middle;verticalAlign=top;align=center;fontSize=12;outlineConnect=0;spacingTop=-6;fontColor=#FFFFFF;shape=mxgraph.sitemap.page;shadow=1;labelBackgroundColor=#F5F5F5;" vertex="1" parent="1">
          <mxGeometry x="584" y="107.44" width="210" height="127.56" as="geometry" />
        </mxCell>
        <mxCell id="xVC4U7UjAwEscI-Leogj-11" value="" style="verticalLabelPosition=bottom;shadow=0;dashed=0;align=center;html=1;verticalAlign=top;strokeWidth=1;shape=mxgraph.mockup.graphics.columnChart;strokeColor=none;strokeColor2=none;strokeColor3=#666666;fillColor2=#008cff;fillColor3=#dddddd;" vertex="1" parent="1">
          <mxGeometry x="594" y="125" width="50" height="40" as="geometry" />
        </mxCell>
        <mxCell id="xVC4U7UjAwEscI-Leogj-12" value="" style="verticalLabelPosition=bottom;shadow=0;dashed=0;align=center;html=1;verticalAlign=top;strokeWidth=1;shape=mxgraph.mockup.graphics.lineChart;strokeColor=none;strokeColor2=#666666;strokeColor3=#008cff;strokeColor4=#dddddd;" vertex="1" parent="1">
          <mxGeometry x="659" y="125" width="60" height="40" as="geometry" />
        </mxCell>
        <mxCell id="xVC4U7UjAwEscI-Leogj-13" value="" style="verticalLabelPosition=bottom;shadow=0;dashed=0;align=center;html=1;verticalAlign=top;strokeWidth=1;shape=mxgraph.mockup.graphics.pieChart;strokeColor=#008cff;parts=10,20,35;partColors=#e0e0e0,#d0d0d0,#c0c0c0,#b0b0b0,#a0a0a0;strokeWidth=2;" vertex="1" parent="1">
          <mxGeometry x="734" y="125" width="40" height="40" as="geometry" />
        </mxCell>
        <mxCell id="xVC4U7UjAwEscI-Leogj-14" value="" style="verticalLabelPosition=bottom;shadow=0;dashed=0;align=center;html=1;verticalAlign=top;strokeWidth=1;shape=mxgraph.mockup.graphics.bubbleChart;strokeColor=none;strokeColor2=none;strokeColor3=#666666;fillColor2=#008cff;fillColor3=#dddddd;" vertex="1" parent="1">
          <mxGeometry x="594" y="177.44" width="90" height="40" as="geometry" />
        </mxCell>
        <mxCell id="xVC4U7UjAwEscI-Leogj-15" value="" style="verticalLabelPosition=bottom;shadow=0;dashed=0;align=center;html=1;verticalAlign=top;strokeWidth=1;shape=mxgraph.mockup.graphics.barChart;strokeColor=none;strokeColor2=none;strokeColor3=#666666;fillColor2=#008cff;fillColor3=#dddddd;" vertex="1" parent="1">
          <mxGeometry x="704" y="177.44" width="70" height="40" as="geometry" />
        </mxCell>
        <mxCell id="xVC4U7UjAwEscI-Leogj-16" value="&lt;b&gt;&lt;span style=&quot;line-height: 107%;&quot;&gt;&lt;font style=&quot;font-size: 12px;&quot;&gt;email,&lt;br&gt;Slack, SMS&lt;/font&gt;&lt;/span&gt;&lt;/b&gt;" style="strokeWidth=1;shadow=0;dashed=0;align=center;html=1;shape=mxgraph.mockup.buttons.button;strokeColor=#666666;fontColor=#3399FF;mainText=;buttonStyle=round;fontSize=17;fontStyle=1;fillColor=none;whiteSpace=wrap;" vertex="1" parent="1">
          <mxGeometry x="588" y="270" width="206" height="50" as="geometry" />
        </mxCell>
        <mxCell id="xVC4U7UjAwEscI-Leogj-17" value="&lt;b&gt;&lt;span style=&quot;line-height: 107%;&quot;&gt;&lt;font style=&quot;font-size: 12px;&quot;&gt;logs&lt;br&gt;des erreurs et requêtes SQL lentes&lt;/font&gt;&lt;/span&gt;&lt;/b&gt;&lt;span style=&quot;font-size:12.0pt;&lt;br/&gt;line-height:107%;font-family:&amp;quot;Times New Roman&amp;quot;,serif;mso-fareast-font-family:&lt;br/&gt;&amp;quot;Times New Roman&amp;quot;;mso-ansi-language:FR-CM;mso-fareast-language:FR-CM;&lt;br/&gt;mso-bidi-language:AR-SA&quot;&gt;&lt;/span&gt;" style="strokeWidth=1;shadow=0;dashed=0;align=center;html=1;shape=mxgraph.mockup.buttons.button;strokeColor=#666666;fontColor=#3399FF;mainText=;buttonStyle=round;fontSize=17;fontStyle=1;fillColor=none;whiteSpace=wrap;" vertex="1" parent="1">
          <mxGeometry x="591" y="361" width="206" height="50" as="geometry" />
        </mxCell>
      </root>
    </mxGraphModel>
  </diagram>
</mxfile>
